<svg xmlns="http://www.w3.org/2000/svg" width="205.886" height="56.945" viewBox="0 0 205.886 56.945"><defs><style>.a,.b{fill:#fff;}.a{fill-rule:evenodd;}</style></defs><g transform="translate(-1239.192 293.616)"><path class="a" d="M1296.286-266.047a12.474,12.474,0,0,0-3.911-4.745c-.88-.565-.848-1.044-.5-1.842a11.564,11.564,0,0,0,.938-6.07,1.613,1.613,0,0,0-.783-1.231A13.241,13.241,0,0,0,1286-282.2a1.186,1.186,0,0,1-1.254-1.114c0-.028,0-.057,0-.085a12.413,12.413,0,0,0-2.2-5.652,2.047,2.047,0,0,0-1.752-.944,13.886,13.886,0,0,0-5.988,1.029c-.362.156-.774.449-1.105-.051a12.48,12.48,0,0,0-3.951-3.672c-.812-.5-1.633-1.26-2.793-.772a11.909,11.909,0,0,0-5.063,4.061c-.432.587-.794.778-1.49.43a11.013,11.013,0,0,0-5.177-1.029c-.552.257-1.452-.457-2.059.411a15.426,15.426,0,0,0-1.374,2.176,14.06,14.06,0,0,0-1.225,4.5c-.054.464-.187.765-.736.794a14.17,14.17,0,0,0-6.048,1.957,1.7,1.7,0,0,0-.983,1.42,12.589,12.589,0,0,0,1.072,6.519.953.953,0,0,1-.2,1.333.969.969,0,0,1-.157.094,12.449,12.449,0,0,0-4.144,5.045,1.625,1.625,0,0,0,0,1.457,13.229,13.229,0,0,0,4.276,5.187c.464.363.55.593.323,1.068a13.43,13.43,0,0,0-1.152,6.056,2.142,2.142,0,0,0,1.091,1.973,13.531,13.531,0,0,0,6.007,2.071c.491.046.75.187.82.7a15.524,15.524,0,0,0,2.123,6,1.764,1.764,0,0,0,1.569,1,13.381,13.381,0,0,0,6.187-.959,1.307,1.307,0,0,1,1.787.473l.013.023a12.6,12.6,0,0,0,4.722,3.809,1.784,1.784,0,0,0,1.722,0,12.8,12.8,0,0,0,4.852-4.092.939.939,0,0,1,1.241-.471.96.96,0,0,1,.159.091,13.062,13.062,0,0,0,5.973,1.084,2.244,2.244,0,0,0,2.068-1.253,13.476,13.476,0,0,0,1.952-5.846c.027-.464.216-.7.7-.723a15.308,15.308,0,0,0,6.215-2.074,1.71,1.71,0,0,0,1.013-1.6,13.76,13.76,0,0,0-1.16-6.246,1.03,1.03,0,0,1,.264-1.431,1.047,1.047,0,0,1,.149-.085,12.5,12.5,0,0,0,4.018-4.788A1.706,1.706,0,0,0,1296.286-266.047Zm-15.422-16.736c.772.746,1.419,1.37,2.057,1.991-2.686,2.362-2.3,2.668-3.73,1.365C1279.773-280.59,1280.327-281.7,1280.864-282.783Zm-3.485-.324,1.869.542c-.326,2.6-.925,3.143-2.7,2.623C1276.818-280.977,1277.09-282.013,1277.379-283.107Zm-1.74-1.021a7.881,7.881,0,0,1,.014,3.42c-.048.356-.68.643-1.044.958-.261-.442-.76-.895-.748-1.33a5.548,5.548,0,0,0-1.587-4.176C1273.667-285.549,1275.262-285.189,1275.639-284.128Zm-5.531-.89c1.38.182,2.566,1.94,2.818,3.976a5.41,5.41,0,0,1-1.777-.531,10.538,10.538,0,0,0-6.6-2.458C1266.188-285.614,1268.193-285.269,1270.107-285.017Zm-17.391,12.15a26,26,0,0,1,10.086-4.451c.859-.189,1.743-.267,2.617-.4.024.109.049.218.074.324-6.142,2.2-11.72,5.2-15.456,10.889C1250.585-268.8,1250.633-271.308,1252.717-272.867Zm14.681,6.089a27.186,27.186,0,0,0-2.661,12.519c.13,2.771.423,5.531.586,8.3.06,1.017-.037,2.038-.061,3.058l-.554.195a43.679,43.679,0,0,1-3.413-5c-2.4-4.769-2.135-9.787-.928-14.85-3.927,4.273-4.217,9.281-2.794,14.9-3.365-1.587-4.9-4.2-6-7.232-1.681.773-3.236,1.8-5.122.747,2.621-2.663,2.9-3.17,4.164-6.86,1.74-5.06,4.5-9.384,9.166-12.242,2.239-1.37,4.548-2.623,6.978-4.013.316,1.8.236,2.97-1.365,3.574-.58.219-1.016.852-1.518,1.3l.232.306,2.5-1.044c.983,1.407.928,1.37.037,2.579a28.347,28.347,0,0,0-2.428,3.736,8.7,8.7,0,0,0-.479,2.436c.125.035.253.067.379.1,1.072-1.346,1.907-2.942,3.852-3.859C1267.691-267.474,1267.552-267.123,1267.4-266.779Zm-.134-12.611a41.708,41.708,0,0,0-6.033.407,43.2,43.2,0,0,0-5.83,2.042c2.3-5.409,10.087-6.193,14.009-4.1Zm1.515,4.006a22.291,22.291,0,0,1,.328-3.55,1.857,1.857,0,0,1,1.014-1.029,4.034,4.034,0,0,1,1.508-.19c1.147-.045,1.9.837,1.8,2.552a4.564,4.564,0,0,0-.581-.792,12.633,12.633,0,0,0-1.068-.71c-.28.449-.831.926-.787,1.343.168,1.5.533,2.976.813,4.462.048.261.053.533.083.849C1270.221-272.891,1268.751-274.267,1268.779-275.383Zm20.6,16c-.22.524-.495,1.032-.655,1.358l-1.925-.372c-.122-.288-.256-.607-.453-1.083-.305.412-.447.783-.712.919a2.993,2.993,0,0,1-1.624.516c-.731-.133-1.056-.756-.824-1.589a4.67,4.67,0,0,0,.158-1.516,2.7,2.7,0,0,0-.081-.533,2.7,2.7,0,0,0-3.283-1.942l1.131.7c-.956.631-2.176,1-2.494,1.757-.306.724.317,1.843.528,2.762-3.056-1.471-3.934-2.771-3.679-5.5q.326-3.446,3.574-2.286a2.746,2.746,0,0,0,.486.157,2.776,2.776,0,0,0,3.313-2.106c-2.168,1.457-2.183,1.487-4.666.282a3.018,3.018,0,0,0-3.029.042,3.134,3.134,0,0,0-1.949,2.62c-.052.727-.156,1.6-1.381,1.38a8.615,8.615,0,0,1-.039-1.026c.124-1.616.221-3.234.411-4.842.238-2.043,1.457-2.69,3.248-1.792a4.063,4.063,0,0,0,.928.428,4.921,4.921,0,0,0,3.7-.5l-3.441-.985c1.013-3.075,1.013-3.075-1.094-5.048a1.381,1.381,0,0,1,.059-.213,1.4,1.4,0,0,1,1.8-.839,14.769,14.769,0,0,1,2.9.945,5.849,5.849,0,0,1,3.151,3.365c-.606-.22-.967-.354-1.471-.535.342,1.632,1.96,1.079,2.749,1.827a1.245,1.245,0,0,1-.136.454,1.249,1.249,0,0,1-1.685.526,7.78,7.78,0,0,0-1.91-.086c0,.123-.008.251-.008.367l2.518,1.531c-.112.1.016.036.065-.066,1-2.138,1.606-2.337,3.521-1.145a3.678,3.678,0,0,1,.531.359,29.35,29.35,0,0,1,2.992,2.746c.727.855.406,1.406-.721,1.473a19.526,19.526,0,0,1-2.29-.126c-.158,1.138.549,1.738,1.245,2.381.3.273.688.758.614,1.034a2.058,2.058,0,0,1-.928,1.022,14.969,14.969,0,0,1-1.437.524c-.981.464-2.384-.353-2.7.935,1.524-1.311,3.6-.546,5.569.034C1289.724-260.408,1289.583-259.884,1289.376-259.384Zm.266-5.548c-.428.061-.97-.65-1.461-1.015l.18-.274c.928-.028,1.856-.06,2.784-.09a1.991,1.991,0,0,1,.166.218C1290.758-265.679,1290.239-265.02,1289.642-264.932Z" transform="translate(0)"/><g transform="translate(1304.465 -281.685)"><path class="b" d="M1387.4-258.341a7.41,7.41,0,0,0-1.962-1.049,19.989,19.989,0,0,0-2.9-.8,18.315,18.315,0,0,1-2.632-.7,6.416,6.416,0,0,1-1.634-.817,2.435,2.435,0,0,1-.813-.958,3.122,3.122,0,0,1-.244-1.268v-.048a2.878,2.878,0,0,1,.32-1.313,3.557,3.557,0,0,1,.937-1.138,4.917,4.917,0,0,1,1.49-.808,6.007,6.007,0,0,1,1.955-.3,8.2,8.2,0,0,1,2.9.51,10.213,10.213,0,0,1,2.494,1.355l.289.216.8-1.023-.293-.225a10.115,10.115,0,0,0-2.8-1.507,9.915,9.915,0,0,0-3.343-.558,7.506,7.506,0,0,0-2.39.365,6.217,6.217,0,0,0-1.9,1.019,4.847,4.847,0,0,0-1.275,1.532,4.056,4.056,0,0,0-.465,1.9v.049a4.269,4.269,0,0,0,.357,1.779,3.733,3.733,0,0,0,1.14,1.392,7.141,7.141,0,0,0,1.939,1.012,19.546,19.546,0,0,0,2.8.747,22.564,22.564,0,0,1,2.7.721,5.99,5.99,0,0,1,1.649.826,2.547,2.547,0,0,1,.806.984,3.244,3.244,0,0,1,.243,1.285v.049a3.281,3.281,0,0,1-.335,1.462,3.413,3.413,0,0,1-.966,1.178,4.886,4.886,0,0,1-1.573.8,7.055,7.055,0,0,1-2.1.295,8.684,8.684,0,0,1-3.411-.667,9.474,9.474,0,0,1-2.871-1.913l-.261-.251-.918.922.274.26a10.762,10.762,0,0,0,3.255,2.132,10.031,10.031,0,0,0,3.882.751,8.324,8.324,0,0,0,2.586-.38,6.207,6.207,0,0,0,1.994-1.043,4.663,4.663,0,0,0,1.28-1.593,4.479,4.479,0,0,0,.447-1.974v-.05a4.454,4.454,0,0,0-.328-1.743A3.588,3.588,0,0,0,1387.4-258.341Z" transform="translate(-1375.131 268.77)"/><path class="b" d="M1409.617-267.019h6.288v16.9h1.28v-16.9h6.289v-1.233h-13.857Z" transform="translate(-1393.058 268.501)"/><path class="b" d="M1447.592-258.617h10.536v-1.233h-10.536v-7.167H1459.2v-1.233H1446.31v18.13h13.01v-1.233h-11.729Z" transform="translate(-1412.132 268.499)"/><path class="b" d="M1493.558-258.2a6.066,6.066,0,0,0,1.9-1.049,4.717,4.717,0,0,0,1.72-3.737v-.049a4.75,4.75,0,0,0-1.35-3.492,7.185,7.185,0,0,0-5.258-1.745H1483.1v18.13h1.281v-7.578h5.913l5.765,7.578h1.594l-5.838-7.666A8.714,8.714,0,0,0,1493.558-258.2Zm-9.172-8.84h6.144a6.506,6.506,0,0,1,4,1.08,3.466,3.466,0,0,1,1.37,2.95v.05a3.762,3.762,0,0,1-.329,1.563,3.384,3.384,0,0,1-1,1.257,5.089,5.089,0,0,1-1.741.865,8.806,8.806,0,0,1-2.526.323h-5.921Z" transform="translate(-1431.257 268.521)"/><path class="b" d="M1536.833-268.249v15.821l-12.652-15.821h-1.016v18.13h1.281v-15.82l12.546,15.682.111.138h1.016v-18.129Z" transform="translate(-1452.085 268.499)"/></g><g transform="translate(1393.171 -281.976)"><path class="b" d="M1559.872-269.375h.6v18.559h11.734v.545h-12.333Z" transform="translate(-1559.872 269.375)"/><path class="b" d="M1598-244.288a6.977,6.977,0,0,1-1.923-.258,5.028,5.028,0,0,1-1.624-.778,3.922,3.922,0,0,1-1.134-1.283,3.612,3.612,0,0,1-.423-1.773v-.055a3.679,3.679,0,0,1,.476-1.883,4.118,4.118,0,0,1,1.294-1.365,6.07,6.07,0,0,1,1.919-.819,9.943,9.943,0,0,1,2.382-.273,15.96,15.96,0,0,1,2.764.232,13.281,13.281,0,0,1,2.356.609v-1.146a4.59,4.59,0,0,0-1.377-3.671,5.6,5.6,0,0,0-3.776-1.187,8.609,8.609,0,0,0-2.375.314,13.375,13.375,0,0,0-2.155.832l-.218-.487a14.707,14.707,0,0,1,2.292-.872,8.961,8.961,0,0,1,2.482-.329,5.91,5.91,0,0,1,4.365,1.5,4.384,4.384,0,0,1,1,1.611,6.4,6.4,0,0,1,.365,2.265v8.487h-.6l.027-3.22a4.5,4.5,0,0,1-.708,1.228,5.544,5.544,0,0,1-1.255,1.145,6.9,6.9,0,0,1-1.8.853A7.8,7.8,0,0,1,1598-244.288Zm.016-.545a7.139,7.139,0,0,0,2.476-.409,6.4,6.4,0,0,0,1.92-1.078,4.781,4.781,0,0,0,1.237-1.527,3.841,3.841,0,0,0,.437-1.759v-1.749a14.1,14.1,0,0,0-2.314-.64,15.041,15.041,0,0,0-2.777-.232,9.555,9.555,0,0,0-2.15.232,5.571,5.571,0,0,0-1.755.71,3.533,3.533,0,0,0-1.169,1.186,3.128,3.128,0,0,0-.424,1.637v.055a3.19,3.19,0,0,0,.365,1.572,3.358,3.358,0,0,0,.993,1.118,4.38,4.38,0,0,0,1.443.667A6.54,6.54,0,0,0,1598.013-244.834Z" transform="translate(-1577.037 263.719)"/><path class="b" d="M1627.731-258.094h.6l4.394,12.88,4.447-12.962h.464l4.421,12.962,4.42-12.88h.573l-4.776,13.755h-.463l-4.423-12.99-4.419,12.99h-.466Z" transform="translate(-1595.147 263.553)"/></g><g transform="translate(1305.86 -255.701)"><path class="b" d="M1378.427-207.662l-.391-5.984h.763l.186,3.6c.036.834.036,1.234.036,1.571h.017c.141-.356.284-.731.657-1.527l1.758-3.654h.844l.169,3.419c.036.835.054,1.385.044,1.741h.018c.186-.524.381-1.012.63-1.554l1.714-3.6h.817l-2.947,5.984h-.826l-.2-3.411a13.534,13.534,0,0,1-.008-1.794h-.017a16.238,16.238,0,0,1-.631,1.583l-1.784,3.623Z" transform="translate(-1378.036 214.133)"/><path class="b" d="M1397.1-206.2a3.332,3.332,0,0,1-1.554.365,1.653,1.653,0,0,1-1.778-1.518,1.636,1.636,0,0,1,0-.276,2.68,2.68,0,0,1,2.495-2.716c.879,0,1.385.487,1.385,1.145,0,1.163-1.385,1.4-3.107,1.368a1.5,1.5,0,0,0,.107.8,1.088,1.088,0,0,0,1.057.586,2.725,2.725,0,0,0,1.287-.31Zm-.942-3.561a1.759,1.759,0,0,0-1.536,1.34c1.314.018,2.283-.108,2.283-.782,0-.352-.31-.557-.747-.557Z" transform="translate(-1386.21 212.415)"/><path class="b" d="M1409.407-213.613a10.185,10.185,0,0,1,1.687-.133,3.233,3.233,0,0,1,2.486.87,2.272,2.272,0,0,1,.621,1.669,3.343,3.343,0,0,1-1.207,2.62,4.538,4.538,0,0,1-3.063.915c-.586,0-1.2-.026-1.643-.071Zm-.23,5.266a6.978,6.978,0,0,0,.923.044,3.356,3.356,0,0,0,2.436-.818,2.715,2.715,0,0,0,.834-2.024c0-1.11-.578-1.981-2.314-1.981a5.7,5.7,0,0,0-.974.071Z" transform="translate(-1393.762 214.187)"/><path class="b" d="M1426.02-206.2a3.331,3.331,0,0,1-1.554.365,1.652,1.652,0,0,1-1.777-1.518,1.731,1.731,0,0,1,0-.276,2.68,2.68,0,0,1,2.5-2.716c.88,0,1.385.487,1.385,1.145,0,1.163-1.385,1.4-3.108,1.368a1.493,1.493,0,0,0,.107.8,1.089,1.089,0,0,0,1.056.586,2.719,2.719,0,0,0,1.288-.31Zm-.942-3.561a1.759,1.759,0,0,0-1.536,1.34c1.314.018,2.282-.108,2.282-.782,0-.352-.311-.557-.747-.557Z" transform="translate(-1401.245 212.415)"/><path class="b" d="M1432.886-208.183l.693-3.694h-.586l.121-.609h.586l.035-.213a2.744,2.744,0,0,1,.737-1.571,1.662,1.662,0,0,1,1.057-.381,1.315,1.315,0,0,1,.639.122l-.159.621a1.08,1.08,0,0,0-.47-.1c-.621,0-.906.559-1.039,1.314l-.035.2h1l-.122.609h-1l-.693,3.694Z" transform="translate(-1406.549 214.654)"/><path class="b" d="M1442.533-206.2a3.332,3.332,0,0,1-1.554.365,1.653,1.653,0,0,1-1.778-1.518,1.636,1.636,0,0,1,0-.276,2.68,2.68,0,0,1,2.5-2.716c.879,0,1.385.487,1.385,1.145,0,1.163-1.385,1.4-3.107,1.368a1.5,1.5,0,0,0,.107.8,1.089,1.089,0,0,0,1.056.586,2.719,2.719,0,0,0,1.287-.31Zm-.942-3.561a1.759,1.759,0,0,0-1.536,1.34c1.314.018,2.283-.108,2.283-.782,0-.352-.312-.557-.747-.557Z" transform="translate(-1409.829 212.415)"/><path class="b" d="M1449.22-205.939l.586-3.117c.089-.435.143-.817.2-1.182h.693l-.122.905h.018a2.058,2.058,0,0,1,1.731-1,1.149,1.149,0,0,1,1.215,1.078,1.178,1.178,0,0,1-.008.218,4.22,4.22,0,0,1-.081.693l-.461,2.407h-.764l.453-2.38a3.345,3.345,0,0,0,.054-.533c0-.487-.187-.852-.773-.852a1.984,1.984,0,0,0-1.608,1.776l-.365,1.989Z" transform="translate(-1415.04 212.411)"/><path class="b" d="M1465.743-214.418l-.958,5.044a11.69,11.69,0,0,0-.178,1.314h-.71l.133-.906h-.018a2.049,2.049,0,0,1-1.722,1.012,1.462,1.462,0,0,1-1.433-1.489,1.388,1.388,0,0,1,.012-.163,2.859,2.859,0,0,1,2.859-2.858h.01a2.41,2.41,0,0,1,.853.142l.391-2.1Zm-1.269,2.744a1.63,1.63,0,0,0-.8-.178,2.062,2.062,0,0,0-2.009,2.114v.034c0,.524.195,1.128.923,1.128a2,2,0,0,0,1.615-1.741Z" transform="translate(-1421.088 214.531)"/><path class="b" d="M1479.055-212.29l-.195,1.039h1.1l-.122.609h-1.1l-.382,1.971a3.9,3.9,0,0,0-.089.731.4.4,0,0,0,.346.444.391.391,0,0,0,.1,0,1.519,1.519,0,0,0,.373-.035l-.027.594a1.831,1.831,0,0,1-.609.089.843.843,0,0,1-.952-.718.862.862,0,0,1-.007-.162,4.124,4.124,0,0,1,.1-.843l.4-2.075h-.648l.122-.609h.639l.16-.817Z" transform="translate(-1429.658 213.425)"/><path class="b" d="M1484.053-208.06l1.207-6.358h.764l-.559,2.877h.017a2.037,2.037,0,0,1,1.687-.915,1.135,1.135,0,0,1,1.194,1.074,1.112,1.112,0,0,1,0,.17,3.8,3.8,0,0,1-.072.731l-.461,2.424h-.764l.445-2.37a2.69,2.69,0,0,0,.062-.609.706.706,0,0,0-.614-.787.707.707,0,0,0-.149,0,1.949,1.949,0,0,0-1.607,1.714l-.383,2.051Z" transform="translate(-1433.147 214.531)"/><path class="b" d="M1499.045-206.2a3.335,3.335,0,0,1-1.554.365,1.653,1.653,0,0,1-1.778-1.518,1.676,1.676,0,0,1,0-.276,2.68,2.68,0,0,1,2.5-2.716c.879,0,1.385.487,1.385,1.145,0,1.163-1.385,1.4-3.107,1.368a1.5,1.5,0,0,0,.106.8,1.088,1.088,0,0,0,1.056.586,2.73,2.73,0,0,0,1.287-.31Zm-.941-3.561a1.759,1.759,0,0,0-1.536,1.34c1.314.018,2.281-.108,2.281-.782,0-.352-.311-.557-.745-.557Z" transform="translate(-1439.206 212.415)"/><path class="b" d="M1510.867-209.571l-1.03,1.919h-.818l3.289-5.984h.923l1.039,5.984h-.8l-.311-1.919Zm2.229-.609-.3-1.793c-.045-.275-.108-.693-.143-1h-.018c-.16.32-.3.648-.488.994l-.985,1.8Z" transform="translate(-1446.125 214.125)"/><path class="b" d="M1522.649-205.94l.587-3.117c.079-.435.141-.817.186-1.182h.683l-.133.853H1524a1.98,1.98,0,0,1,1.643-.95,1.007,1.007,0,0,1,1.092.912.93.93,0,0,1,0,.109,1.981,1.981,0,0,1,1.722-1.021,1.112,1.112,0,0,1,1.158,1.065,1.07,1.07,0,0,1,0,.143,5.246,5.246,0,0,1-.062.72l-.47,2.469h-.747l.445-2.388a3.259,3.259,0,0,0,.062-.524c0-.515-.195-.853-.746-.853a1.8,1.8,0,0,0-1.462,1.634l-.391,2.131h-.746l.462-2.436a2.565,2.565,0,0,0,.053-.487c0-.391-.1-.834-.745-.834-.586,0-1.323.737-1.492,1.687l-.382,2.078Z" transform="translate(-1453.211 212.412)"/><path class="b" d="M1543.188-206.2a3.337,3.337,0,0,1-1.554.365,1.653,1.653,0,0,1-1.778-1.518,1.676,1.676,0,0,1,0-.276,2.68,2.68,0,0,1,2.5-2.716c.879,0,1.385.487,1.385,1.145,0,1.163-1.385,1.4-3.107,1.368a1.493,1.493,0,0,0,.106.8,1.088,1.088,0,0,0,1.056.586,2.729,2.729,0,0,0,1.287-.31Zm-.942-3.561a1.758,1.758,0,0,0-1.536,1.34c1.314.018,2.281-.108,2.281-.782,0-.352-.311-.557-.745-.557Z" transform="translate(-1462.153 212.415)"/><path class="b" d="M1549.852-205.955l.515-2.726c.108-.559.178-1.145.231-1.572h.675c-.036.32-.079.648-.133.974h.027a1.631,1.631,0,0,1,1.393-1.083,1.976,1.976,0,0,1,.244.017l-.143.747a1.659,1.659,0,0,0-.244-.018c-.666,0-1.26.764-1.462,1.883l-.337,1.776Z" transform="translate(-1467.352 212.423)"/><path class="b" d="M1557.092-207.711l.817-4.3h.772l-.817,4.3Zm.958-5.523a.5.5,0,0,1,.473-.515h.023a.46.46,0,0,1,.472.449c0,.011,0,.021,0,.031a.506.506,0,0,1-.5.507h-.02a.446.446,0,0,1-.45-.441c0-.011,0-.021,0-.031Z" transform="translate(-1471.115 214.184)"/><path class="b" d="M1565.834-206.146a3.241,3.241,0,0,1-1.43.311,1.651,1.651,0,0,1-1.8-1.483,1.623,1.623,0,0,1-.007-.222,2.782,2.782,0,0,1,2.762-2.8h.039a2.372,2.372,0,0,1,1.048.244l-.223.6a1.96,1.96,0,0,0-.87-.2,2.011,2.011,0,0,0-1.948,2.07,1.1,1.1,0,0,0,1,1.182,1.107,1.107,0,0,0,.2,0,2.41,2.41,0,0,0,1.146-.284Z" transform="translate(-1473.974 212.413)"/><path class="b" d="M1574.969-205.954a9.254,9.254,0,0,1,.106-1.207h-.017a2.043,2.043,0,0,1-1.846,1.314,1.38,1.38,0,0,1-1.381-1.379c0-.038,0-.075,0-.113a3.054,3.054,0,0,1,3.086-3.021l.093,0a5.316,5.316,0,0,1,1.269.169l-.417,2.167a9.615,9.615,0,0,0-.177,2.071Zm.453-3.721a1.933,1.933,0,0,0-.586-.071,2.269,2.269,0,0,0-2.2,2.3c0,.453.186.974.843.974.683,0,1.492-.781,1.722-2.024Z" transform="translate(-1478.777 212.422)"/><path class="b" d="M1583.324-205.939l.586-3.117c.089-.435.141-.817.195-1.182h.693l-.122.905h.018a2.058,2.058,0,0,1,1.731-1,1.149,1.149,0,0,1,1.215,1.078,1.147,1.147,0,0,1-.008.218,4.321,4.321,0,0,1-.081.693l-.461,2.407h-.764l.453-2.38a3.374,3.374,0,0,0,.054-.533c0-.487-.186-.852-.772-.852a1.983,1.983,0,0,0-1.607,1.776l-.365,1.989Z" transform="translate(-1484.752 212.411)"/><path class="b" d="M1600.622-213.612a10.174,10.174,0,0,1,1.687-.133,3.233,3.233,0,0,1,2.486.87,2.274,2.274,0,0,1,.621,1.669,3.341,3.341,0,0,1-1.208,2.62,4.539,4.539,0,0,1-3.064.915c-.586,0-1.2-.026-1.642-.071Zm-.231,5.266a7.059,7.059,0,0,0,.923.044,3.357,3.357,0,0,0,2.436-.818,2.717,2.717,0,0,0,.835-2.024c0-1.11-.578-1.981-2.314-1.981a5.654,5.654,0,0,0-.974.071Z" transform="translate(-1493.162 214.187)"/><path class="b" d="M1613.8-205.955l.515-2.726c.107-.559.178-1.145.231-1.572h.675c-.035.32-.081.648-.134.974h.027a1.629,1.629,0,0,1,1.393-1.083,1.972,1.972,0,0,1,.244.017l-.143.747a1.659,1.659,0,0,0-.244-.018c-.666,0-1.26.764-1.462,1.883l-.337,1.776Z" transform="translate(-1500.594 212.423)"/><path class="b" d="M1624.372-206.2a3.335,3.335,0,0,1-1.554.365,1.653,1.653,0,0,1-1.778-1.518,1.676,1.676,0,0,1,0-.276,2.68,2.68,0,0,1,2.5-2.716c.879,0,1.385.487,1.385,1.145,0,1.163-1.385,1.4-3.107,1.368a1.493,1.493,0,0,0,.106.8,1.088,1.088,0,0,0,1.056.586,2.731,2.731,0,0,0,1.287-.31Zm-.942-3.561a1.758,1.758,0,0,0-1.536,1.34c1.314.018,2.281-.108,2.281-.782,0-.352-.311-.557-.746-.557Z" transform="translate(-1504.355 212.415)"/><path class="b" d="M1634.162-205.954a9.253,9.253,0,0,1,.105-1.207h-.018a2.042,2.042,0,0,1-1.848,1.314,1.38,1.38,0,0,1-1.381-1.379c0-.038,0-.075,0-.113a3.054,3.054,0,0,1,3.088-3.02l.09,0a5.312,5.312,0,0,1,1.269.169l-.419,2.164a9.538,9.538,0,0,0-.178,2.071Zm.453-3.721a1.929,1.929,0,0,0-.586-.071,2.271,2.271,0,0,0-2.2,2.3c0,.453.187.974.843.974.683,0,1.492-.781,1.722-2.024Z" transform="translate(-1509.546 212.422)"/><path class="b" d="M1642.5-205.94l.586-3.117c.081-.435.142-.817.186-1.182h.685l-.134.853h.027a1.978,1.978,0,0,1,1.642-.95,1.007,1.007,0,0,1,1.092.914.864.864,0,0,1,0,.107,1.979,1.979,0,0,1,1.722-1.021,1.113,1.113,0,0,1,1.158,1.064,1.136,1.136,0,0,1,0,.143,5.3,5.3,0,0,1-.062.72l-.472,2.469h-.746l.445-2.388a3.272,3.272,0,0,0,.063-.524c0-.515-.2-.853-.746-.853a1.8,1.8,0,0,0-1.462,1.634l-.391,2.131h-.746l.462-2.436a2.6,2.6,0,0,0,.054-.487c0-.391-.1-.834-.746-.834-.586,0-1.323.737-1.492,1.687l-.383,2.078Z" transform="translate(-1515.513 212.412)"/><path class="b" d="M1663.649-212.335a1.492,1.492,0,0,1-1.483,1.5h-.036a1.488,1.488,0,0,1-1.543-1.431,1.489,1.489,0,0,1,1.431-1.544c.04,0,.08,0,.121,0a1.485,1.485,0,0,1,1.51,1.459Zm-2.672.009a1.152,1.152,0,0,0,1.123,1.181h.032a1.133,1.133,0,0,0,1.137-1.128c0-.018,0-.036,0-.053a1.146,1.146,0,0,0-1.108-1.183,1.146,1.146,0,0,0-1.183,1.108C1660.976-212.377,1660.976-212.351,1660.977-212.326Zm.915.764h-.343v-1.477a4.154,4.154,0,0,1,.577-.044.856.856,0,0,1,.515.116.365.365,0,0,1,.151.311.383.383,0,0,1-.31.346v.017a.445.445,0,0,1,.267.365.9.9,0,0,0,.116.365h-.383a1.145,1.145,0,0,1-.114-.356c-.027-.159-.122-.23-.3-.23h-.17Zm.009-.835h.161c.194,0,.346-.062.346-.213s-.1-.221-.319-.221a.84.84,0,0,0-.186.018Z" transform="translate(-1524.915 214.215)"/></g></g></svg>