<svg xmlns="http://www.w3.org/2000/svg" width="153.742" height="153.742" viewBox="0 0 153.742 153.742"><defs><style>.a{fill:none;}.b,.d{fill:#98d5df;}.c,.d{stroke:none;}</style></defs><g transform="translate(-623 -297.766)"><g class="a" transform="translate(623 297.766)"><path class="c" d="M76.871,0A76.871,76.871,0,1,1,0,76.871,76.871,76.871,0,0,1,76.871,0Z"/><path class="d" d="M 76.87108612060547 2 C 66.76267242431641 2 56.95768737792969 3.979293823242188 47.72850036621094 7.882919311523438 C 43.29250335693359 9.759185791015625 39.01383972167969 12.08158874511719 35.01133728027344 14.78562927246094 C 31.04635620117188 17.46430969238281 27.31779479980469 20.54066467285156 23.92922973632812 23.92922973632812 C 20.54066467285156 27.31779479980469 17.46430969238281 31.04635620117188 14.78562927246094 35.01133728027344 C 12.08158874511719 39.01383972167969 9.759185791015625 43.29250335693359 7.882919311523438 47.72850036621094 C 3.979293823242188 56.95768737792969 2 66.76267242431641 2 76.87108612060547 C 2 86.97949981689453 3.979293823242188 96.78448486328125 7.882919311523438 106.013671875 C 9.759185791015625 110.4496688842773 12.08158874511719 114.7283325195312 14.78562927246094 118.7308349609375 C 17.46430969238281 122.6958160400391 20.54066467285156 126.4243774414062 23.92922973632812 129.8129425048828 C 27.31779479980469 133.2015075683594 31.04635620117188 136.2778625488281 35.01133728027344 138.95654296875 C 39.01383972167969 141.6605834960938 43.29250335693359 143.9829864501953 47.72850036621094 145.8592529296875 C 56.95768737792969 149.7628784179688 66.76267242431641 151.7421722412109 76.87108612060547 151.7421722412109 C 86.97949981689453 151.7421722412109 96.78448486328125 149.7628784179688 106.013671875 145.8592529296875 C 110.4496688842773 143.9829864501953 114.7283325195312 141.6605834960938 118.7308349609375 138.95654296875 C 122.6958160400391 136.2778625488281 126.4243774414062 133.2015075683594 129.8129425048828 129.8129425048828 C 133.2015075683594 126.4243774414062 136.2778625488281 122.6958160400391 138.95654296875 118.7308349609375 C 141.6605834960938 114.7283325195312 143.9829864501953 110.4496688842773 145.8592529296875 106.013671875 C 149.7628784179688 96.78448486328125 151.7421722412109 86.97949981689453 151.7421722412109 76.87108612060547 C 151.7421722412109 66.76267242431641 149.7628784179688 56.95768737792969 145.8592529296875 47.72850036621094 C 143.9829864501953 43.29250335693359 141.6605834960938 39.01383972167969 138.95654296875 35.01133728027344 C 136.2778625488281 31.04635620117188 133.2015075683594 27.31779479980469 129.8129425048828 23.92922973632812 C 126.4243774414062 20.54066467285156 122.6958160400391 17.46430969238281 118.7308349609375 14.78562927246094 C 114.7283325195312 12.08158874511719 110.4496688842773 9.759185791015625 106.013671875 7.882919311523438 C 96.78448486328125 3.979293823242188 86.97949981689453 2 76.87108612060547 2 M 76.87108612060547 0 C 119.3258209228516 0 153.7421722412109 34.41635894775391 153.7421722412109 76.87108612060547 C 153.7421722412109 119.3258209228516 119.3258209228516 153.7421722412109 76.87108612060547 153.7421722412109 C 34.41635894775391 153.7421722412109 0 119.3258209228516 0 76.87108612060547 C 0 34.41635894775391 34.41635894775391 0 76.87108612060547 0 Z"/></g><path class="b" d="M23.5,0,47,39H0Z" transform="translate(722.508 352) rotate(90)"/></g></svg>