<svg xmlns="http://www.w3.org/2000/svg" width="33.156" height="32.933" viewBox="0 0 33.156 32.933"><defs><style>.a{fill:#053a48;fill-rule:evenodd;}.b{fill:#fff;}</style></defs><g transform="translate(-335.85 -247.019)"><path class="a" d="M368.87,262.962a7.215,7.215,0,0,0-2.262-2.744c-.509-.327-.49-.6-.288-1.065a6.687,6.687,0,0,0,.543-3.51.933.933,0,0,0-.453-.712,7.655,7.655,0,0,0-3.489-1.309.686.686,0,0,1-.725-.644c0-.017,0-.033,0-.05a7.18,7.18,0,0,0-1.275-3.269,1.184,1.184,0,0,0-1.013-.545,8.022,8.022,0,0,0-3.463.6c-.209.09-.448.26-.64-.03a7.216,7.216,0,0,0-2.285-2.124c-.47-.287-.944-.729-1.615-.446a6.893,6.893,0,0,0-2.928,2.348c-.25.34-.459.45-.861.249a6.372,6.372,0,0,0-2.994-.6c-.319.149-.84-.264-1.191.238a8.889,8.889,0,0,0-.794,1.258,8.13,8.13,0,0,0-.709,2.6c-.031.268-.108.442-.425.459a8.2,8.2,0,0,0-3.5,1.132.983.983,0,0,0-.568.821,7.278,7.278,0,0,0,.62,3.77.551.551,0,0,1-.209.825,7.2,7.2,0,0,0-2.4,2.918.938.938,0,0,0,0,.843,7.648,7.648,0,0,0,2.473,3c.268.21.318.343.186.618a7.772,7.772,0,0,0-.666,3.5,1.239,1.239,0,0,0,.632,1.141,7.821,7.821,0,0,0,3.474,1.2c.284.027.434.108.475.406a8.981,8.981,0,0,0,1.228,3.47,1.021,1.021,0,0,0,.907.578,7.734,7.734,0,0,0,3.578-.555.756.756,0,0,1,1.034.274l.008.013a7.284,7.284,0,0,0,2.731,2.2,1.031,1.031,0,0,0,1,0,7.4,7.4,0,0,0,2.806-2.367.543.543,0,0,1,.718-.272.55.55,0,0,1,.092.053,7.555,7.555,0,0,0,3.455.627,1.3,1.3,0,0,0,1.2-.724,7.794,7.794,0,0,0,1.129-3.381c.015-.269.125-.4.4-.418a8.855,8.855,0,0,0,3.594-1.2.989.989,0,0,0,.586-.925,7.955,7.955,0,0,0-.671-3.612.595.595,0,0,1,.239-.877,7.225,7.225,0,0,0,2.323-2.769A.986.986,0,0,0,368.87,262.962Z"/><g transform="translate(344.425 257.882)"><path class="b" d="M372.223,298.338l-5.088-5.089a1.388,1.388,0,1,1,1.964-1.964l3.125,3.125,7.866-7.866a1.388,1.388,0,1,1,1.963,1.964Z" transform="translate(-366.728 -286.139)"/></g></g></svg>