<svg xmlns="http://www.w3.org/2000/svg" width="245.892" height="192.871" viewBox="0 0 245.892 192.871"><defs><style>.a{fill:#98d5df;}</style></defs><g transform="translate(-885.754 -1312.938)"><path class="a" d="M3.568,1.768a1.848,1.848,0,0,1-.473,1.268,1.684,1.684,0,0,1-1.328.533A1.716,1.716,0,0,1,.522,3.06,1.686,1.686,0,0,1,0,1.8,1.758,1.758,0,0,1,.516.529,1.686,1.686,0,0,1,1.767,0,1.7,1.7,0,0,1,3.088.529,1.78,1.78,0,0,1,3.568,1.768Z" transform="translate(889.326 1312.938) rotate(90)"/><path class="a" d="M3.568,1.769a1.85,1.85,0,0,1-.473,1.268,1.686,1.686,0,0,1-1.328.533A1.719,1.719,0,0,1,.522,3.061,1.687,1.687,0,0,1,0,1.8,1.752,1.752,0,0,1,.516.53,1.688,1.688,0,0,1,1.767,0,1.7,1.7,0,0,1,3.088.53,1.78,1.78,0,0,1,3.568,1.769Z" transform="translate(906.636 1312.938) rotate(90)"/><path class="a" d="M3.568,1.768a1.845,1.845,0,0,1-.473,1.268,1.684,1.684,0,0,1-1.328.534,1.716,1.716,0,0,1-1.244-.51A1.686,1.686,0,0,1,0,1.8,1.752,1.752,0,0,1,.516.53,1.681,1.681,0,0,1,1.767,0,1.7,1.7,0,0,1,3.088.53,1.777,1.777,0,0,1,3.568,1.768Z" transform="translate(923.943 1312.938) rotate(90)"/><path class="a" d="M3.568,1.768a1.848,1.848,0,0,1-.473,1.268,1.683,1.683,0,0,1-1.328.533A1.713,1.713,0,0,1,.522,3.06,1.686,1.686,0,0,1,0,1.8,1.758,1.758,0,0,1,.516.53,1.685,1.685,0,0,1,1.767,0,1.7,1.7,0,0,1,3.088.53,1.777,1.777,0,0,1,3.568,1.768Z" transform="translate(941.251 1312.938) rotate(90)"/><path class="a" d="M3.568,1.769a1.848,1.848,0,0,1-.473,1.268,1.684,1.684,0,0,1-1.328.534,1.717,1.717,0,0,1-1.244-.51A1.686,1.686,0,0,1,0,1.8,1.752,1.752,0,0,1,.516.53,1.681,1.681,0,0,1,1.767,0,1.693,1.693,0,0,1,3.088.53,1.777,1.777,0,0,1,3.568,1.769Z" transform="translate(958.56 1312.938) rotate(90)"/><path class="a" d="M3.568,1.768a1.848,1.848,0,0,1-.473,1.268,1.684,1.684,0,0,1-1.328.533A1.716,1.716,0,0,1,.522,3.06,1.686,1.686,0,0,1,0,1.8,1.757,1.757,0,0,1,.516.53,1.683,1.683,0,0,1,1.767,0,1.7,1.7,0,0,1,3.088.53,1.777,1.777,0,0,1,3.568,1.768Z" transform="translate(975.868 1312.938) rotate(90)"/><path class="a" d="M3.568,1.77a1.848,1.848,0,0,1-.473,1.268,1.683,1.683,0,0,1-1.328.533A1.714,1.714,0,0,1,.522,3.062,1.682,1.682,0,0,1,0,1.8,1.753,1.753,0,0,1,.516.53,1.686,1.686,0,0,1,1.767,0,1.7,1.7,0,0,1,3.088.53,1.78,1.78,0,0,1,3.568,1.77Z" transform="translate(993.179 1312.938) rotate(90)"/><path class="a" d="M3.568,1.768a1.85,1.85,0,0,1-.473,1.269,1.683,1.683,0,0,1-1.328.534,1.719,1.719,0,0,1-1.244-.51A1.688,1.688,0,0,1,0,1.8,1.753,1.753,0,0,1,.516.53,1.684,1.684,0,0,1,1.767,0,1.7,1.7,0,0,1,3.088.53,1.778,1.778,0,0,1,3.568,1.768Z" transform="translate(1010.485 1312.938) rotate(90)"/><path class="a" d="M3.568,1.768a1.845,1.845,0,0,1-.473,1.268,1.684,1.684,0,0,1-1.328.533A1.716,1.716,0,0,1,.522,3.06,1.686,1.686,0,0,1,0,1.8,1.76,1.76,0,0,1,.516.529,1.685,1.685,0,0,1,1.767,0,1.7,1.7,0,0,1,3.088.529,1.78,1.78,0,0,1,3.568,1.768Z" transform="translate(1027.794 1312.938) rotate(90)"/><path class="a" d="M3.568,1.77a1.845,1.845,0,0,1-.473,1.268,1.684,1.684,0,0,1-1.328.533,1.719,1.719,0,0,1-1.244-.51A1.688,1.688,0,0,1,0,1.8,1.752,1.752,0,0,1,.516.53,1.681,1.681,0,0,1,1.767,0,1.7,1.7,0,0,1,3.088.53,1.78,1.78,0,0,1,3.568,1.77Z" transform="translate(1045.105 1312.938) rotate(90)"/><path class="a" d="M3.568,1.767a1.85,1.85,0,0,1-.473,1.269,1.686,1.686,0,0,1-1.328.533A1.719,1.719,0,0,1,.522,3.06,1.688,1.688,0,0,1,0,1.8,1.759,1.759,0,0,1,.516.529,1.685,1.685,0,0,1,1.767,0,1.7,1.7,0,0,1,3.088.529,1.778,1.778,0,0,1,3.568,1.767Z" transform="translate(1062.41 1312.938) rotate(90)"/><path class="a" d="M3.568,1.77a1.847,1.847,0,0,1-.473,1.268,1.687,1.687,0,0,1-1.328.533A1.719,1.719,0,0,1,.522,3.063,1.685,1.685,0,0,1,0,1.8,1.753,1.753,0,0,1,.516.53,1.687,1.687,0,0,1,1.767,0,1.7,1.7,0,0,1,3.088.53,1.781,1.781,0,0,1,3.568,1.77Z" transform="translate(1079.721 1312.938) rotate(90)"/><path class="a" d="M3.568,1.768a1.85,1.85,0,0,1-.473,1.269,1.686,1.686,0,0,1-1.328.533A1.719,1.719,0,0,1,.522,3.061,1.688,1.688,0,0,1,0,1.8,1.752,1.752,0,0,1,.516.53,1.681,1.681,0,0,1,1.767,0,1.7,1.7,0,0,1,3.088.53,1.778,1.778,0,0,1,3.568,1.768Z" transform="translate(1097.029 1312.938) rotate(90)"/><path class="a" d="M3.568,1.768a1.848,1.848,0,0,1-.473,1.268,1.684,1.684,0,0,1-1.328.533A1.716,1.716,0,0,1,.522,3.06,1.686,1.686,0,0,1,0,1.8,1.753,1.753,0,0,1,.516.529,1.685,1.685,0,0,1,1.767,0,1.7,1.7,0,0,1,3.088.529,1.78,1.78,0,0,1,3.568,1.768Z" transform="translate(1114.335 1312.938) rotate(90)"/><path class="a" d="M3.568,1.77a1.849,1.849,0,0,1-.473,1.268,1.686,1.686,0,0,1-1.328.533,1.718,1.718,0,0,1-1.244-.51A1.688,1.688,0,0,1,0,1.8,1.752,1.752,0,0,1,.516.53,1.681,1.681,0,0,1,1.767,0,1.7,1.7,0,0,1,3.088.53,1.78,1.78,0,0,1,3.568,1.77Z" transform="translate(1131.646 1312.938) rotate(90)"/><path class="a" d="M3.568,1.768a1.848,1.848,0,0,1-.473,1.268,1.684,1.684,0,0,1-1.328.533A1.716,1.716,0,0,1,.522,3.06,1.686,1.686,0,0,1,0,1.8,1.758,1.758,0,0,1,.516.529,1.688,1.688,0,0,1,1.767,0,1.7,1.7,0,0,1,3.088.529,1.777,1.777,0,0,1,3.568,1.768Z" transform="translate(889.326 1327.499) rotate(90)"/><path class="a" d="M3.568,1.769a1.85,1.85,0,0,1-.473,1.268,1.686,1.686,0,0,1-1.328.533A1.719,1.719,0,0,1,.522,3.061,1.687,1.687,0,0,1,0,1.8,1.752,1.752,0,0,1,.516.53,1.688,1.688,0,0,1,1.767,0,1.7,1.7,0,0,1,3.088.53,1.78,1.78,0,0,1,3.568,1.769Z" transform="translate(906.636 1327.499) rotate(90)"/><path class="a" d="M3.568,1.768a1.845,1.845,0,0,1-.473,1.268,1.684,1.684,0,0,1-1.328.534,1.716,1.716,0,0,1-1.244-.51A1.686,1.686,0,0,1,0,1.8,1.752,1.752,0,0,1,.516.53,1.681,1.681,0,0,1,1.767,0,1.7,1.7,0,0,1,3.088.53,1.777,1.777,0,0,1,3.568,1.768Z" transform="translate(923.943 1327.499) rotate(90)"/><path class="a" d="M3.568,1.768a1.848,1.848,0,0,1-.473,1.268,1.683,1.683,0,0,1-1.328.533A1.716,1.716,0,0,1,.522,3.06,1.686,1.686,0,0,1,0,1.8,1.758,1.758,0,0,1,.516.53,1.685,1.685,0,0,1,1.767,0,1.7,1.7,0,0,1,3.088.53,1.777,1.777,0,0,1,3.568,1.768Z" transform="translate(941.251 1327.499) rotate(90)"/><path class="a" d="M3.568,1.769a1.848,1.848,0,0,1-.473,1.268,1.684,1.684,0,0,1-1.328.534,1.717,1.717,0,0,1-1.244-.51A1.686,1.686,0,0,1,0,1.8,1.752,1.752,0,0,1,.516.53,1.681,1.681,0,0,1,1.767,0,1.693,1.693,0,0,1,3.088.53,1.777,1.777,0,0,1,3.568,1.769Z" transform="translate(958.56 1327.499) rotate(90)"/><path class="a" d="M3.568,1.768a1.848,1.848,0,0,1-.473,1.268,1.684,1.684,0,0,1-1.328.533A1.716,1.716,0,0,1,.522,3.06,1.686,1.686,0,0,1,0,1.8,1.757,1.757,0,0,1,.516.53,1.683,1.683,0,0,1,1.767,0,1.7,1.7,0,0,1,3.088.53,1.777,1.777,0,0,1,3.568,1.768Z" transform="translate(975.868 1327.499) rotate(90)"/><path class="a" d="M3.568,1.77a1.848,1.848,0,0,1-.473,1.268,1.683,1.683,0,0,1-1.328.533A1.714,1.714,0,0,1,.522,3.062,1.683,1.683,0,0,1,0,1.8,1.753,1.753,0,0,1,.516.53,1.687,1.687,0,0,1,1.767,0,1.7,1.7,0,0,1,3.088.53,1.78,1.78,0,0,1,3.568,1.77Z" transform="translate(993.179 1327.499) rotate(90)"/><path class="a" d="M3.568,1.768a1.85,1.85,0,0,1-.473,1.269,1.683,1.683,0,0,1-1.328.534,1.719,1.719,0,0,1-1.244-.51A1.689,1.689,0,0,1,0,1.8,1.753,1.753,0,0,1,.516.53,1.688,1.688,0,0,1,1.767,0,1.7,1.7,0,0,1,3.088.53,1.778,1.778,0,0,1,3.568,1.768Z" transform="translate(1010.485 1327.499) rotate(90)"/><path class="a" d="M3.568,1.768a1.845,1.845,0,0,1-.473,1.268,1.684,1.684,0,0,1-1.328.533A1.719,1.719,0,0,1,.522,3.06,1.686,1.686,0,0,1,0,1.8,1.76,1.76,0,0,1,.516.529,1.685,1.685,0,0,1,1.767,0,1.7,1.7,0,0,1,3.088.529,1.78,1.78,0,0,1,3.568,1.768Z" transform="translate(1027.794 1327.499) rotate(90)"/><path class="a" d="M3.568,1.77a1.845,1.845,0,0,1-.473,1.268,1.684,1.684,0,0,1-1.328.533,1.719,1.719,0,0,1-1.244-.51A1.688,1.688,0,0,1,0,1.8,1.752,1.752,0,0,1,.516.53,1.681,1.681,0,0,1,1.767,0,1.7,1.7,0,0,1,3.088.53,1.78,1.78,0,0,1,3.568,1.77Z" transform="translate(1045.105 1327.499) rotate(90)"/><path class="a" d="M3.568,1.767a1.85,1.85,0,0,1-.473,1.269,1.686,1.686,0,0,1-1.328.533A1.719,1.719,0,0,1,.522,3.06,1.688,1.688,0,0,1,0,1.8,1.759,1.759,0,0,1,.516.529,1.685,1.685,0,0,1,1.767,0,1.7,1.7,0,0,1,3.088.529,1.778,1.778,0,0,1,3.568,1.767Z" transform="translate(1062.41 1327.499) rotate(90)"/><path class="a" d="M3.568,1.77a1.847,1.847,0,0,1-.473,1.268,1.687,1.687,0,0,1-1.328.533A1.719,1.719,0,0,1,.522,3.063,1.685,1.685,0,0,1,0,1.8,1.753,1.753,0,0,1,.516.53,1.688,1.688,0,0,1,1.767,0,1.7,1.7,0,0,1,3.088.53,1.781,1.781,0,0,1,3.568,1.77Z" transform="translate(1079.721 1327.499) rotate(90)"/><path class="a" d="M3.568,1.768a1.85,1.85,0,0,1-.473,1.269,1.686,1.686,0,0,1-1.328.533A1.719,1.719,0,0,1,.522,3.061,1.688,1.688,0,0,1,0,1.8,1.752,1.752,0,0,1,.516.53,1.681,1.681,0,0,1,1.767,0,1.7,1.7,0,0,1,3.088.53,1.778,1.778,0,0,1,3.568,1.768Z" transform="translate(1097.029 1327.499) rotate(90)"/><path class="a" d="M3.568,1.768a1.848,1.848,0,0,1-.473,1.268,1.684,1.684,0,0,1-1.328.533A1.719,1.719,0,0,1,.522,3.06,1.686,1.686,0,0,1,0,1.8,1.753,1.753,0,0,1,.516.529,1.685,1.685,0,0,1,1.767,0,1.7,1.7,0,0,1,3.088.529,1.78,1.78,0,0,1,3.568,1.768Z" transform="translate(1114.335 1327.499) rotate(90)"/><path class="a" d="M3.568,1.77a1.849,1.849,0,0,1-.473,1.268,1.686,1.686,0,0,1-1.328.533,1.718,1.718,0,0,1-1.244-.51A1.688,1.688,0,0,1,0,1.8,1.752,1.752,0,0,1,.516.53,1.681,1.681,0,0,1,1.767,0,1.7,1.7,0,0,1,3.088.53,1.78,1.78,0,0,1,3.568,1.77Z" transform="translate(1131.646 1327.499) rotate(90)"/><path class="a" d="M3.568,1.768a1.846,1.846,0,0,1-.474,1.268,1.682,1.682,0,0,1-1.328.533A1.718,1.718,0,0,1,.522,3.06,1.686,1.686,0,0,1,0,1.8,1.758,1.758,0,0,1,.516.529,1.688,1.688,0,0,1,1.767,0,1.7,1.7,0,0,1,3.088.529,1.78,1.78,0,0,1,3.568,1.768Z" transform="translate(889.326 1342.061) rotate(90)"/><path class="a" d="M3.568,1.769a1.847,1.847,0,0,1-.474,1.268,1.684,1.684,0,0,1-1.328.533A1.72,1.72,0,0,1,.522,3.061,1.69,1.69,0,0,1,0,1.8,1.757,1.757,0,0,1,.516.53,1.688,1.688,0,0,1,1.767,0,1.7,1.7,0,0,1,3.088.53,1.778,1.778,0,0,1,3.568,1.769Z" transform="translate(906.636 1342.061) rotate(90)"/><path class="a" d="M3.568,1.768a1.846,1.846,0,0,1-.474,1.268,1.683,1.683,0,0,1-1.328.534,1.718,1.718,0,0,1-1.244-.51A1.686,1.686,0,0,1,0,1.8,1.758,1.758,0,0,1,.516.53,1.683,1.683,0,0,1,1.767,0,1.7,1.7,0,0,1,3.088.53,1.78,1.78,0,0,1,3.568,1.768Z" transform="translate(923.943 1342.061) rotate(90)"/><path class="a" d="M3.568,1.768a1.846,1.846,0,0,1-.474,1.268,1.682,1.682,0,0,1-1.328.533A1.715,1.715,0,0,1,.522,3.06,1.686,1.686,0,0,1,0,1.8,1.758,1.758,0,0,1,.516.53,1.686,1.686,0,0,1,1.767,0,1.7,1.7,0,0,1,3.088.53,1.78,1.78,0,0,1,3.568,1.768Z" transform="translate(941.251 1342.061) rotate(90)"/><path class="a" d="M3.568,1.769a1.846,1.846,0,0,1-.474,1.268,1.683,1.683,0,0,1-1.328.534,1.718,1.718,0,0,1-1.244-.51A1.686,1.686,0,0,1,0,1.8,1.757,1.757,0,0,1,.516.53,1.683,1.683,0,0,1,1.767,0,1.693,1.693,0,0,1,3.088.53,1.78,1.78,0,0,1,3.568,1.769Z" transform="translate(958.56 1342.061) rotate(90)"/><path class="a" d="M3.568,1.768a1.846,1.846,0,0,1-.474,1.268,1.682,1.682,0,0,1-1.328.533A1.717,1.717,0,0,1,.522,3.06,1.686,1.686,0,0,1,0,1.8,1.757,1.757,0,0,1,.516.53,1.683,1.683,0,0,1,1.767,0,1.7,1.7,0,0,1,3.088.53,1.78,1.78,0,0,1,3.568,1.768Z" transform="translate(975.868 1342.061) rotate(90)"/><path class="a" d="M3.568,1.77a1.846,1.846,0,0,1-.474,1.268,1.682,1.682,0,0,1-1.328.533A1.715,1.715,0,0,1,.522,3.062,1.688,1.688,0,0,1,0,1.8,1.759,1.759,0,0,1,.516.53,1.689,1.689,0,0,1,1.767,0,1.7,1.7,0,0,1,3.088.53,1.777,1.777,0,0,1,3.568,1.77Z" transform="translate(993.179 1342.061) rotate(90)"/><path class="a" d="M3.568,1.768a1.847,1.847,0,0,1-.474,1.269,1.682,1.682,0,0,1-1.328.534,1.721,1.721,0,0,1-1.244-.51A1.689,1.689,0,0,1,0,1.8,1.759,1.759,0,0,1,.516.53,1.688,1.688,0,0,1,1.767,0,1.7,1.7,0,0,1,3.088.53,1.781,1.781,0,0,1,3.568,1.768Z" transform="translate(1010.485 1342.061) rotate(90)"/><path class="a" d="M3.568,1.768a1.846,1.846,0,0,1-.474,1.268,1.682,1.682,0,0,1-1.328.533A1.718,1.718,0,0,1,.522,3.06,1.686,1.686,0,0,1,0,1.8,1.76,1.76,0,0,1,.516.529,1.685,1.685,0,0,1,1.767,0,1.7,1.7,0,0,1,3.088.529,1.783,1.783,0,0,1,3.568,1.768Z" transform="translate(1027.794 1342.061) rotate(90)"/><path class="a" d="M3.568,1.77a1.846,1.846,0,0,1-.474,1.268,1.682,1.682,0,0,1-1.328.533,1.72,1.72,0,0,1-1.244-.51A1.688,1.688,0,0,1,0,1.8,1.759,1.759,0,0,1,.516.53,1.686,1.686,0,0,1,1.767,0,1.7,1.7,0,0,1,3.088.53,1.778,1.778,0,0,1,3.568,1.77Z" transform="translate(1045.105 1342.061) rotate(90)"/><path class="a" d="M3.568,1.767a1.847,1.847,0,0,1-.474,1.269,1.684,1.684,0,0,1-1.328.533A1.72,1.72,0,0,1,.522,3.06,1.688,1.688,0,0,1,0,1.8,1.759,1.759,0,0,1,.516.529,1.685,1.685,0,0,1,1.767,0,1.7,1.7,0,0,1,3.088.529,1.781,1.781,0,0,1,3.568,1.767Z" transform="translate(1062.41 1342.061) rotate(90)"/><path class="a" d="M3.568,1.77a1.845,1.845,0,0,1-.474,1.268,1.685,1.685,0,0,1-1.328.533A1.72,1.72,0,0,1,.522,3.063,1.69,1.69,0,0,1,0,1.8,1.759,1.759,0,0,1,.516.53,1.689,1.689,0,0,1,1.767,0,1.7,1.7,0,0,1,3.088.53,1.779,1.779,0,0,1,3.568,1.77Z" transform="translate(1079.721 1342.061) rotate(90)"/><path class="a" d="M3.568,1.768a1.847,1.847,0,0,1-.474,1.269,1.684,1.684,0,0,1-1.328.533A1.72,1.72,0,0,1,.522,3.061,1.688,1.688,0,0,1,0,1.8,1.757,1.757,0,0,1,.516.53,1.684,1.684,0,0,1,1.767,0,1.7,1.7,0,0,1,3.088.53,1.781,1.781,0,0,1,3.568,1.768Z" transform="translate(1097.029 1342.061) rotate(90)"/><path class="a" d="M3.568,1.768a1.846,1.846,0,0,1-.474,1.268,1.682,1.682,0,0,1-1.328.533A1.717,1.717,0,0,1,.522,3.06,1.686,1.686,0,0,1,0,1.8,1.759,1.759,0,0,1,.516.529,1.685,1.685,0,0,1,1.767,0,1.7,1.7,0,0,1,3.088.529,1.783,1.783,0,0,1,3.568,1.768Z" transform="translate(1114.335 1342.061) rotate(90)"/><path class="a" d="M3.568,1.77a1.847,1.847,0,0,1-.474,1.268,1.684,1.684,0,0,1-1.328.533,1.72,1.72,0,0,1-1.244-.51A1.688,1.688,0,0,1,0,1.8,1.758,1.758,0,0,1,.516.53,1.683,1.683,0,0,1,1.767,0,1.7,1.7,0,0,1,3.088.53,1.778,1.778,0,0,1,3.568,1.77Z" transform="translate(1131.646 1342.061) rotate(90)"/><path class="a" d="M3.568,1.768a1.846,1.846,0,0,1-.474,1.268,1.682,1.682,0,0,1-1.328.533A1.718,1.718,0,0,1,.522,3.06,1.686,1.686,0,0,1,0,1.8,1.755,1.755,0,0,1,.517.529,1.686,1.686,0,0,1,1.767,0,1.706,1.706,0,0,1,3.089.529,1.783,1.783,0,0,1,3.568,1.768Z" transform="translate(889.326 1356.623) rotate(90)"/><path class="a" d="M3.568,1.769a1.847,1.847,0,0,1-.474,1.268,1.684,1.684,0,0,1-1.328.533A1.72,1.72,0,0,1,.522,3.061,1.69,1.69,0,0,1,0,1.8,1.755,1.755,0,0,1,.517.53,1.686,1.686,0,0,1,1.767,0,1.706,1.706,0,0,1,3.089.53,1.78,1.78,0,0,1,3.568,1.769Z" transform="translate(906.636 1356.623) rotate(90)"/><path class="a" d="M3.568,1.768a1.846,1.846,0,0,1-.474,1.268,1.683,1.683,0,0,1-1.328.534,1.718,1.718,0,0,1-1.244-.51A1.685,1.685,0,0,1,0,1.8,1.755,1.755,0,0,1,.517.53,1.681,1.681,0,0,1,1.767,0,1.7,1.7,0,0,1,3.089.53,1.783,1.783,0,0,1,3.568,1.768Z" transform="translate(923.943 1356.623) rotate(90)"/><path class="a" d="M3.568,1.768a1.846,1.846,0,0,1-.474,1.268,1.682,1.682,0,0,1-1.328.533A1.715,1.715,0,0,1,.522,3.06,1.685,1.685,0,0,1,0,1.8,1.755,1.755,0,0,1,.517.53,1.683,1.683,0,0,1,1.767,0,1.706,1.706,0,0,1,3.089.53,1.783,1.783,0,0,1,3.568,1.768Z" transform="translate(941.251 1356.623) rotate(90)"/><path class="a" d="M3.568,1.769a1.846,1.846,0,0,1-.474,1.268,1.683,1.683,0,0,1-1.328.534,1.718,1.718,0,0,1-1.244-.51A1.686,1.686,0,0,1,0,1.8,1.755,1.755,0,0,1,.517.53,1.681,1.681,0,0,1,1.767,0,1.7,1.7,0,0,1,3.089.53,1.783,1.783,0,0,1,3.568,1.769Z" transform="translate(958.56 1356.623) rotate(90)"/><path class="a" d="M3.568,1.768a1.846,1.846,0,0,1-.474,1.268,1.682,1.682,0,0,1-1.328.533A1.717,1.717,0,0,1,.522,3.06,1.685,1.685,0,0,1,0,1.8,1.755,1.755,0,0,1,.517.53,1.68,1.68,0,0,1,1.767,0,1.706,1.706,0,0,1,3.089.53,1.783,1.783,0,0,1,3.568,1.768Z" transform="translate(975.868 1356.623) rotate(90)"/><path class="a" d="M3.568,1.77a1.846,1.846,0,0,1-.474,1.268,1.682,1.682,0,0,1-1.328.533A1.715,1.715,0,0,1,.522,3.062,1.687,1.687,0,0,1,0,1.8,1.756,1.756,0,0,1,.517.53,1.686,1.686,0,0,1,1.767,0,1.705,1.705,0,0,1,3.089.53,1.78,1.78,0,0,1,3.568,1.77Z" transform="translate(993.179 1356.623) rotate(90)"/><path class="a" d="M3.568,1.768a1.847,1.847,0,0,1-.474,1.269,1.682,1.682,0,0,1-1.328.534,1.721,1.721,0,0,1-1.244-.51A1.688,1.688,0,0,1,0,1.8,1.756,1.756,0,0,1,.517.53,1.686,1.686,0,0,1,1.767,0,1.7,1.7,0,0,1,3.089.53,1.784,1.784,0,0,1,3.568,1.768Z" transform="translate(1010.485 1356.623) rotate(90)"/><path class="a" d="M3.568,1.768a1.846,1.846,0,0,1-.474,1.268,1.682,1.682,0,0,1-1.328.533A1.718,1.718,0,0,1,.522,3.06,1.685,1.685,0,0,1,0,1.8,1.758,1.758,0,0,1,.517.529,1.682,1.682,0,0,1,1.767,0,1.7,1.7,0,0,1,3.089.529,1.786,1.786,0,0,1,3.568,1.768Z" transform="translate(1027.794 1356.623) rotate(90)"/><path class="a" d="M3.568,1.77a1.846,1.846,0,0,1-.474,1.268,1.682,1.682,0,0,1-1.328.533,1.72,1.72,0,0,1-1.244-.51A1.688,1.688,0,0,1,0,1.8,1.756,1.756,0,0,1,.517.53,1.684,1.684,0,0,1,1.767,0,1.7,1.7,0,0,1,3.089.53,1.78,1.78,0,0,1,3.568,1.77Z" transform="translate(1045.105 1356.623) rotate(90)"/><path class="a" d="M3.568,1.767a1.847,1.847,0,0,1-.474,1.269,1.684,1.684,0,0,1-1.328.533A1.72,1.72,0,0,1,.522,3.06,1.688,1.688,0,0,1,0,1.8,1.756,1.756,0,0,1,.517.529,1.682,1.682,0,0,1,1.767,0,1.7,1.7,0,0,1,3.089.529,1.784,1.784,0,0,1,3.568,1.767Z" transform="translate(1062.41 1356.623) rotate(90)"/><path class="a" d="M3.568,1.77a1.845,1.845,0,0,1-.474,1.268,1.685,1.685,0,0,1-1.328.533A1.72,1.72,0,0,1,.522,3.063,1.69,1.69,0,0,1,0,1.8,1.756,1.756,0,0,1,.517.53,1.686,1.686,0,0,1,1.767,0,1.705,1.705,0,0,1,3.089.53,1.781,1.781,0,0,1,3.568,1.77Z" transform="translate(1079.721 1356.623) rotate(90)"/><path class="a" d="M3.568,1.768a1.847,1.847,0,0,1-.474,1.269,1.684,1.684,0,0,1-1.328.533A1.72,1.72,0,0,1,.522,3.061,1.688,1.688,0,0,1,0,1.8,1.755,1.755,0,0,1,.517.53,1.681,1.681,0,0,1,1.767,0,1.7,1.7,0,0,1,3.089.53,1.784,1.784,0,0,1,3.568,1.768Z" transform="translate(1097.029 1356.623) rotate(90)"/><path class="a" d="M3.568,1.768a1.846,1.846,0,0,1-.474,1.268,1.682,1.682,0,0,1-1.328.533A1.718,1.718,0,0,1,.522,3.06,1.69,1.69,0,0,1,0,1.8,1.756,1.756,0,0,1,.517.529,1.682,1.682,0,0,1,1.767,0,1.7,1.7,0,0,1,3.089.529,1.786,1.786,0,0,1,3.568,1.768Z" transform="translate(1114.335 1356.623) rotate(90)"/><path class="a" d="M3.568,1.77a1.847,1.847,0,0,1-.474,1.268,1.684,1.684,0,0,1-1.328.533,1.72,1.72,0,0,1-1.244-.51A1.688,1.688,0,0,1,0,1.8,1.755,1.755,0,0,1,.517.53,1.681,1.681,0,0,1,1.767,0,1.705,1.705,0,0,1,3.089.53,1.78,1.78,0,0,1,3.568,1.77Z" transform="translate(1131.646 1356.623) rotate(90)"/><path class="a" d="M3.568,1.768a1.845,1.845,0,0,1-.474,1.268,1.682,1.682,0,0,1-1.328.533A1.718,1.718,0,0,1,.522,3.06,1.686,1.686,0,0,1,0,1.8,1.756,1.756,0,0,1,.517.529,1.683,1.683,0,0,1,1.767,0,1.706,1.706,0,0,1,3.089.529,1.783,1.783,0,0,1,3.568,1.768Z" transform="translate(889.326 1371.184) rotate(90)"/><path class="a" d="M3.568,1.769a1.847,1.847,0,0,1-.474,1.268,1.684,1.684,0,0,1-1.328.533A1.72,1.72,0,0,1,.522,3.061,1.69,1.69,0,0,1,0,1.8,1.755,1.755,0,0,1,.517.53,1.686,1.686,0,0,1,1.767,0,1.706,1.706,0,0,1,3.089.53,1.78,1.78,0,0,1,3.568,1.769Z" transform="translate(906.636 1371.184) rotate(90)"/><path class="a" d="M3.568,1.768a1.845,1.845,0,0,1-.474,1.268,1.683,1.683,0,0,1-1.328.534,1.719,1.719,0,0,1-1.244-.51A1.686,1.686,0,0,1,0,1.8,1.756,1.756,0,0,1,.517.53,1.681,1.681,0,0,1,1.767,0,1.7,1.7,0,0,1,3.089.53,1.783,1.783,0,0,1,3.568,1.768Z" transform="translate(923.943 1371.184) rotate(90)"/><path class="a" d="M3.568,1.768a1.845,1.845,0,0,1-.474,1.268,1.682,1.682,0,0,1-1.328.533A1.715,1.715,0,0,1,.522,3.06,1.686,1.686,0,0,1,0,1.8,1.756,1.756,0,0,1,.517.53,1.683,1.683,0,0,1,1.767,0,1.706,1.706,0,0,1,3.089.53,1.783,1.783,0,0,1,3.568,1.768Z" transform="translate(941.251 1371.184) rotate(90)"/><path class="a" d="M3.568,1.769a1.846,1.846,0,0,1-.474,1.268,1.683,1.683,0,0,1-1.328.534,1.719,1.719,0,0,1-1.244-.51A1.686,1.686,0,0,1,0,1.8,1.755,1.755,0,0,1,.517.53,1.681,1.681,0,0,1,1.767,0,1.7,1.7,0,0,1,3.089.53,1.78,1.78,0,0,1,3.568,1.769Z" transform="translate(958.56 1371.184) rotate(90)"/><path class="a" d="M3.568,1.768a1.846,1.846,0,0,1-.474,1.268,1.682,1.682,0,0,1-1.328.533A1.717,1.717,0,0,1,.522,3.06,1.686,1.686,0,0,1,0,1.8,1.755,1.755,0,0,1,.517.53,1.68,1.68,0,0,1,1.767,0,1.706,1.706,0,0,1,3.089.53,1.783,1.783,0,0,1,3.568,1.768Z" transform="translate(975.868 1371.184) rotate(90)"/><path class="a" d="M3.568,1.77a1.845,1.845,0,0,1-.474,1.268,1.682,1.682,0,0,1-1.328.533A1.715,1.715,0,0,1,.522,3.062,1.688,1.688,0,0,1,0,1.8,1.756,1.756,0,0,1,.517.53,1.686,1.686,0,0,1,1.767,0,1.705,1.705,0,0,1,3.089.53,1.78,1.78,0,0,1,3.568,1.77Z" transform="translate(993.179 1371.184) rotate(90)"/><path class="a" d="M3.568,1.768a1.847,1.847,0,0,1-.474,1.269,1.682,1.682,0,0,1-1.328.534,1.721,1.721,0,0,1-1.244-.51A1.689,1.689,0,0,1,0,1.8,1.756,1.756,0,0,1,.517.53,1.683,1.683,0,0,1,1.767,0,1.7,1.7,0,0,1,3.089.53,1.784,1.784,0,0,1,3.568,1.768Z" transform="translate(1010.485 1371.184) rotate(90)"/><path class="a" d="M3.568,1.768a1.846,1.846,0,0,1-.474,1.268,1.682,1.682,0,0,1-1.328.533A1.718,1.718,0,0,1,.522,3.06,1.686,1.686,0,0,1,0,1.8,1.758,1.758,0,0,1,.517.529,1.682,1.682,0,0,1,1.767,0,1.7,1.7,0,0,1,3.089.529,1.786,1.786,0,0,1,3.568,1.768Z" transform="translate(1027.794 1371.184) rotate(90)"/><path class="a" d="M3.568,1.77a1.846,1.846,0,0,1-.474,1.268,1.682,1.682,0,0,1-1.328.533,1.721,1.721,0,0,1-1.244-.51A1.689,1.689,0,0,1,0,1.8,1.757,1.757,0,0,1,.517.53,1.681,1.681,0,0,1,1.767,0,1.7,1.7,0,0,1,3.089.53,1.78,1.78,0,0,1,3.568,1.77Z" transform="translate(1045.105 1371.184) rotate(90)"/><path class="a" d="M3.568,1.767a1.847,1.847,0,0,1-.474,1.269,1.684,1.684,0,0,1-1.328.533A1.72,1.72,0,0,1,.522,3.06,1.688,1.688,0,0,1,0,1.8,1.757,1.757,0,0,1,.517.529,1.682,1.682,0,0,1,1.767,0,1.7,1.7,0,0,1,3.089.529,1.784,1.784,0,0,1,3.568,1.767Z" transform="translate(1062.41 1371.184) rotate(90)"/><path class="a" d="M3.568,1.77a1.844,1.844,0,0,1-.474,1.268,1.685,1.685,0,0,1-1.328.533A1.72,1.72,0,0,1,.522,3.063,1.69,1.69,0,0,1,0,1.8,1.757,1.757,0,0,1,.517.53,1.686,1.686,0,0,1,1.767,0,1.705,1.705,0,0,1,3.089.53,1.781,1.781,0,0,1,3.568,1.77Z" transform="translate(1079.721 1371.184) rotate(90)"/><path class="a" d="M3.568,1.768a1.847,1.847,0,0,1-.474,1.269,1.684,1.684,0,0,1-1.328.533A1.72,1.72,0,0,1,.522,3.061,1.688,1.688,0,0,1,0,1.8,1.755,1.755,0,0,1,.517.53,1.681,1.681,0,0,1,1.767,0,1.7,1.7,0,0,1,3.089.53,1.781,1.781,0,0,1,3.568,1.768Z" transform="translate(1097.029 1371.184) rotate(90)"/><path class="a" d="M3.568,1.768a1.845,1.845,0,0,1-.474,1.268,1.682,1.682,0,0,1-1.328.533A1.717,1.717,0,0,1,.522,3.06,1.686,1.686,0,0,1,0,1.8,1.757,1.757,0,0,1,.517.529,1.682,1.682,0,0,1,1.767,0,1.7,1.7,0,0,1,3.089.529,1.786,1.786,0,0,1,3.568,1.768Z" transform="translate(1114.335 1371.184) rotate(90)"/><path class="a" d="M3.568,1.77a1.847,1.847,0,0,1-.474,1.268,1.684,1.684,0,0,1-1.328.533,1.72,1.72,0,0,1-1.244-.51A1.688,1.688,0,0,1,0,1.8,1.756,1.756,0,0,1,.517.53,1.681,1.681,0,0,1,1.767,0,1.7,1.7,0,0,1,3.089.53,1.78,1.78,0,0,1,3.568,1.77Z" transform="translate(1131.646 1371.184) rotate(90)"/><path class="a" d="M3.568,1.768a1.845,1.845,0,0,1-.473,1.268,1.684,1.684,0,0,1-1.328.533A1.716,1.716,0,0,1,.522,3.06,1.686,1.686,0,0,1,0,1.8,1.758,1.758,0,0,1,.516.529,1.686,1.686,0,0,1,1.767,0,1.7,1.7,0,0,1,3.088.529,1.776,1.776,0,0,1,3.568,1.768Z" transform="translate(889.326 1385.747) rotate(90)"/><path class="a" d="M3.568,1.769a1.846,1.846,0,0,1-.473,1.268,1.686,1.686,0,0,1-1.328.533A1.719,1.719,0,0,1,.522,3.061,1.685,1.685,0,0,1,0,1.8,1.757,1.757,0,0,1,.516.53,1.688,1.688,0,0,1,1.767,0,1.7,1.7,0,0,1,3.088.53,1.78,1.78,0,0,1,3.568,1.769Z" transform="translate(906.636 1385.747) rotate(90)"/><path class="a" d="M3.568,1.768a1.845,1.845,0,0,1-.473,1.268,1.683,1.683,0,0,1-1.328.534,1.718,1.718,0,0,1-1.244-.51A1.686,1.686,0,0,1,0,1.8,1.758,1.758,0,0,1,.516.53,1.681,1.681,0,0,1,1.767,0,1.7,1.7,0,0,1,3.088.53,1.776,1.776,0,0,1,3.568,1.768Z" transform="translate(923.943 1385.747) rotate(90)"/><path class="a" d="M3.568,1.768a1.845,1.845,0,0,1-.473,1.268,1.683,1.683,0,0,1-1.328.533A1.713,1.713,0,0,1,.522,3.06,1.686,1.686,0,0,1,0,1.8,1.758,1.758,0,0,1,.516.53,1.685,1.685,0,0,1,1.767,0,1.7,1.7,0,0,1,3.088.53,1.776,1.776,0,0,1,3.568,1.768Z" transform="translate(941.251 1385.747) rotate(90)"/><path class="a" d="M3.568,1.769a1.845,1.845,0,0,1-.473,1.268,1.683,1.683,0,0,1-1.328.534,1.718,1.718,0,0,1-1.244-.51A1.686,1.686,0,0,1,0,1.8,1.757,1.757,0,0,1,.516.53,1.681,1.681,0,0,1,1.767,0,1.693,1.693,0,0,1,3.088.53,1.776,1.776,0,0,1,3.568,1.769Z" transform="translate(958.56 1385.747) rotate(90)"/><path class="a" d="M3.568,1.768a1.845,1.845,0,0,1-.473,1.268,1.684,1.684,0,0,1-1.328.533A1.716,1.716,0,0,1,.522,3.06,1.686,1.686,0,0,1,0,1.8,1.758,1.758,0,0,1,.516.53,1.683,1.683,0,0,1,1.767,0,1.7,1.7,0,0,1,3.088.53,1.776,1.776,0,0,1,3.568,1.768Z" transform="translate(975.868 1385.747) rotate(90)"/><path class="a" d="M3.568,1.77a1.845,1.845,0,0,1-.473,1.268,1.684,1.684,0,0,1-1.328.533A1.714,1.714,0,0,1,.522,3.062,1.683,1.683,0,0,1,0,1.8,1.758,1.758,0,0,1,.516.53,1.689,1.689,0,0,1,1.767,0,1.7,1.7,0,0,1,3.088.53,1.78,1.78,0,0,1,3.568,1.77Z" transform="translate(993.179 1385.747) rotate(90)"/><path class="a" d="M3.568,1.768a1.846,1.846,0,0,1-.473,1.269,1.682,1.682,0,0,1-1.328.534,1.72,1.72,0,0,1-1.244-.51A1.689,1.689,0,0,1,0,1.8,1.759,1.759,0,0,1,.516.53,1.686,1.686,0,0,1,1.767,0,1.7,1.7,0,0,1,3.088.53,1.777,1.777,0,0,1,3.568,1.768Z" transform="translate(1010.485 1385.747) rotate(90)"/><path class="a" d="M3.568,1.768a1.845,1.845,0,0,1-.473,1.268,1.684,1.684,0,0,1-1.328.533A1.716,1.716,0,0,1,.522,3.06,1.686,1.686,0,0,1,0,1.8,1.76,1.76,0,0,1,.516.529,1.685,1.685,0,0,1,1.767,0,1.7,1.7,0,0,1,3.088.529,1.779,1.779,0,0,1,3.568,1.768Z" transform="translate(1027.794 1385.747) rotate(90)"/><path class="a" d="M3.568,1.77a1.845,1.845,0,0,1-.473,1.268,1.683,1.683,0,0,1-1.328.533,1.72,1.72,0,0,1-1.244-.51A1.689,1.689,0,0,1,0,1.8,1.759,1.759,0,0,1,.516.53,1.681,1.681,0,0,1,1.767,0,1.7,1.7,0,0,1,3.088.53,1.78,1.78,0,0,1,3.568,1.77Z" transform="translate(1045.105 1385.747) rotate(90)"/><path class="a" d="M3.568,1.767a1.847,1.847,0,0,1-.473,1.269,1.686,1.686,0,0,1-1.328.533A1.719,1.719,0,0,1,.522,3.06,1.688,1.688,0,0,1,0,1.8,1.759,1.759,0,0,1,.516.529,1.685,1.685,0,0,1,1.767,0,1.7,1.7,0,0,1,3.088.529,1.778,1.778,0,0,1,3.568,1.767Z" transform="translate(1062.41 1385.747) rotate(90)"/><path class="a" d="M3.568,1.77a1.844,1.844,0,0,1-.473,1.268,1.687,1.687,0,0,1-1.328.533A1.719,1.719,0,0,1,.522,3.063,1.685,1.685,0,0,1,0,1.8,1.759,1.759,0,0,1,.516.53,1.689,1.689,0,0,1,1.767,0,1.7,1.7,0,0,1,3.088.53,1.781,1.781,0,0,1,3.568,1.77Z" transform="translate(1079.721 1385.747) rotate(90)"/><path class="a" d="M3.568,1.768a1.846,1.846,0,0,1-.473,1.269,1.685,1.685,0,0,1-1.328.533A1.719,1.719,0,0,1,.522,3.061,1.688,1.688,0,0,1,0,1.8,1.758,1.758,0,0,1,.516.53,1.681,1.681,0,0,1,1.767,0,1.7,1.7,0,0,1,3.088.53,1.778,1.778,0,0,1,3.568,1.768Z" transform="translate(1097.029 1385.747) rotate(90)"/><path class="a" d="M3.568,1.768a1.845,1.845,0,0,1-.473,1.268,1.684,1.684,0,0,1-1.328.533A1.716,1.716,0,0,1,.522,3.06,1.686,1.686,0,0,1,0,1.8,1.759,1.759,0,0,1,.516.529,1.685,1.685,0,0,1,1.767,0,1.7,1.7,0,0,1,3.088.529,1.779,1.779,0,0,1,3.568,1.768Z" transform="translate(1114.335 1385.747) rotate(90)"/><path class="a" d="M3.568,1.77a1.846,1.846,0,0,1-.473,1.268,1.686,1.686,0,0,1-1.328.533,1.72,1.72,0,0,1-1.244-.51A1.688,1.688,0,0,1,0,1.8,1.758,1.758,0,0,1,.516.53,1.681,1.681,0,0,1,1.767,0,1.7,1.7,0,0,1,3.088.53,1.78,1.78,0,0,1,3.568,1.77Z" transform="translate(1131.646 1385.747) rotate(90)"/><path class="a" d="M3.568,1.768a1.845,1.845,0,0,1-.473,1.268,1.684,1.684,0,0,1-1.328.533A1.716,1.716,0,0,1,.522,3.06,1.686,1.686,0,0,1,0,1.8,1.758,1.758,0,0,1,.516.529,1.686,1.686,0,0,1,1.767,0,1.7,1.7,0,0,1,3.088.529,1.777,1.777,0,0,1,3.568,1.768Z" transform="translate(889.326 1400.308) rotate(90)"/><path class="a" d="M3.568,1.769a1.846,1.846,0,0,1-.473,1.268,1.686,1.686,0,0,1-1.328.533A1.719,1.719,0,0,1,.522,3.061,1.687,1.687,0,0,1,0,1.8,1.757,1.757,0,0,1,.516.53,1.688,1.688,0,0,1,1.767,0,1.7,1.7,0,0,1,3.088.53,1.78,1.78,0,0,1,3.568,1.769Z" transform="translate(906.636 1400.308) rotate(90)"/><path class="a" d="M3.568,1.768a1.845,1.845,0,0,1-.473,1.268,1.683,1.683,0,0,1-1.328.534,1.717,1.717,0,0,1-1.244-.51A1.686,1.686,0,0,1,0,1.8,1.758,1.758,0,0,1,.516.53,1.681,1.681,0,0,1,1.767,0,1.7,1.7,0,0,1,3.088.53,1.777,1.777,0,0,1,3.568,1.768Z" transform="translate(923.943 1400.308) rotate(90)"/><path class="a" d="M3.568,1.768a1.845,1.845,0,0,1-.473,1.268,1.683,1.683,0,0,1-1.328.533A1.713,1.713,0,0,1,.522,3.06,1.686,1.686,0,0,1,0,1.8,1.758,1.758,0,0,1,.516.53,1.685,1.685,0,0,1,1.767,0,1.7,1.7,0,0,1,3.088.53,1.777,1.777,0,0,1,3.568,1.768Z" transform="translate(941.251 1400.308) rotate(90)"/><path class="a" d="M3.568,1.769a1.845,1.845,0,0,1-.473,1.268,1.683,1.683,0,0,1-1.328.534,1.718,1.718,0,0,1-1.244-.51A1.686,1.686,0,0,1,0,1.8,1.757,1.757,0,0,1,.516.53,1.681,1.681,0,0,1,1.767,0,1.693,1.693,0,0,1,3.088.53,1.776,1.776,0,0,1,3.568,1.769Z" transform="translate(958.56 1400.308) rotate(90)"/><path class="a" d="M3.568,1.768a1.845,1.845,0,0,1-.473,1.268,1.684,1.684,0,0,1-1.328.533A1.716,1.716,0,0,1,.522,3.06,1.686,1.686,0,0,1,0,1.8,1.757,1.757,0,0,1,.516.53,1.683,1.683,0,0,1,1.767,0,1.7,1.7,0,0,1,3.088.53,1.777,1.777,0,0,1,3.568,1.768Z" transform="translate(975.868 1400.308) rotate(90)"/><path class="a" d="M3.568,1.77a1.845,1.845,0,0,1-.473,1.268,1.683,1.683,0,0,1-1.328.533A1.713,1.713,0,0,1,.522,3.062,1.685,1.685,0,0,1,0,1.8,1.759,1.759,0,0,1,.516.53,1.689,1.689,0,0,1,1.767,0,1.7,1.7,0,0,1,3.088.53,1.78,1.78,0,0,1,3.568,1.77Z" transform="translate(993.179 1400.308) rotate(90)"/><path class="a" d="M3.568,1.768a1.847,1.847,0,0,1-.473,1.269,1.682,1.682,0,0,1-1.328.534,1.72,1.72,0,0,1-1.244-.51A1.687,1.687,0,0,1,0,1.8,1.759,1.759,0,0,1,.516.53,1.686,1.686,0,0,1,1.767,0,1.7,1.7,0,0,1,3.088.53,1.778,1.778,0,0,1,3.568,1.768Z" transform="translate(1010.485 1400.308) rotate(90)"/><path class="a" d="M3.568,1.768a1.845,1.845,0,0,1-.473,1.268,1.684,1.684,0,0,1-1.328.533A1.716,1.716,0,0,1,.522,3.06,1.686,1.686,0,0,1,0,1.8,1.76,1.76,0,0,1,.516.529,1.685,1.685,0,0,1,1.767,0,1.7,1.7,0,0,1,3.088.529,1.78,1.78,0,0,1,3.568,1.768Z" transform="translate(1027.794 1400.308) rotate(90)"/><path class="a" d="M3.568,1.77a1.845,1.845,0,0,1-.473,1.268,1.683,1.683,0,0,1-1.328.533,1.72,1.72,0,0,1-1.244-.51A1.687,1.687,0,0,1,0,1.8,1.752,1.752,0,0,1,.516.53,1.681,1.681,0,0,1,1.767,0,1.7,1.7,0,0,1,3.088.53,1.78,1.78,0,0,1,3.568,1.77Z" transform="translate(1045.105 1400.308) rotate(90)"/><path class="a" d="M3.568,1.767a1.847,1.847,0,0,1-.473,1.269,1.686,1.686,0,0,1-1.328.533A1.719,1.719,0,0,1,.522,3.06,1.687,1.687,0,0,1,0,1.8,1.759,1.759,0,0,1,.516.529,1.685,1.685,0,0,1,1.767,0,1.7,1.7,0,0,1,3.088.529,1.778,1.778,0,0,1,3.568,1.767Z" transform="translate(1062.41 1400.308) rotate(90)"/><path class="a" d="M3.568,1.77a1.844,1.844,0,0,1-.473,1.268,1.687,1.687,0,0,1-1.328.533A1.719,1.719,0,0,1,.522,3.063,1.688,1.688,0,0,1,0,1.8,1.759,1.759,0,0,1,.516.53,1.689,1.689,0,0,1,1.767,0,1.7,1.7,0,0,1,3.088.53,1.781,1.781,0,0,1,3.568,1.77Z" transform="translate(1079.721 1400.308) rotate(90)"/><path class="a" d="M3.568,1.768a1.847,1.847,0,0,1-.473,1.269,1.685,1.685,0,0,1-1.328.533A1.719,1.719,0,0,1,.522,3.061,1.688,1.688,0,0,1,0,1.8,1.758,1.758,0,0,1,.516.53,1.681,1.681,0,0,1,1.767,0,1.7,1.7,0,0,1,3.088.53,1.778,1.778,0,0,1,3.568,1.768Z" transform="translate(1097.029 1400.308) rotate(90)"/><path class="a" d="M3.568,1.768a1.845,1.845,0,0,1-.473,1.268,1.684,1.684,0,0,1-1.328.533A1.716,1.716,0,0,1,.522,3.06,1.686,1.686,0,0,1,0,1.8,1.759,1.759,0,0,1,.516.529,1.685,1.685,0,0,1,1.767,0,1.7,1.7,0,0,1,3.088.529,1.78,1.78,0,0,1,3.568,1.768Z" transform="translate(1114.335 1400.308) rotate(90)"/><path class="a" d="M3.568,1.77a1.846,1.846,0,0,1-.473,1.268,1.686,1.686,0,0,1-1.328.533,1.719,1.719,0,0,1-1.244-.51A1.688,1.688,0,0,1,0,1.8,1.758,1.758,0,0,1,.516.53,1.681,1.681,0,0,1,1.767,0,1.7,1.7,0,0,1,3.088.53,1.78,1.78,0,0,1,3.568,1.77Z" transform="translate(1131.646 1400.308) rotate(90)"/><path class="a" d="M3.568,1.768a1.845,1.845,0,0,1-.473,1.268,1.683,1.683,0,0,1-1.328.533A1.718,1.718,0,0,1,.522,3.06,1.686,1.686,0,0,1,0,1.8,1.758,1.758,0,0,1,.516.529,1.688,1.688,0,0,1,1.767,0,1.7,1.7,0,0,1,3.088.529,1.778,1.778,0,0,1,3.568,1.768Z" transform="translate(889.326 1414.87) rotate(90)"/><path class="a" d="M3.568,1.769a1.846,1.846,0,0,1-.473,1.268,1.683,1.683,0,0,1-1.328.533A1.72,1.72,0,0,1,.522,3.061,1.687,1.687,0,0,1,0,1.8,1.757,1.757,0,0,1,.516.53,1.688,1.688,0,0,1,1.767,0,1.7,1.7,0,0,1,3.088.53,1.78,1.78,0,0,1,3.568,1.769Z" transform="translate(906.636 1414.87) rotate(90)"/><path class="a" d="M3.568,1.768a1.845,1.845,0,0,1-.473,1.268,1.681,1.681,0,0,1-1.328.534,1.717,1.717,0,0,1-1.244-.51A1.686,1.686,0,0,1,0,1.8,1.757,1.757,0,0,1,.516.53,1.683,1.683,0,0,1,1.767,0,1.7,1.7,0,0,1,3.088.53,1.777,1.777,0,0,1,3.568,1.768Z" transform="translate(923.943 1414.87) rotate(90)"/><path class="a" d="M3.568,1.768a1.845,1.845,0,0,1-.473,1.268,1.683,1.683,0,0,1-1.328.533A1.717,1.717,0,0,1,.522,3.06,1.686,1.686,0,0,1,0,1.8,1.757,1.757,0,0,1,.516.53,1.685,1.685,0,0,1,1.767,0,1.7,1.7,0,0,1,3.088.53,1.777,1.777,0,0,1,3.568,1.768Z" transform="translate(941.251 1414.87) rotate(90)"/><path class="a" d="M3.568,1.769a1.845,1.845,0,0,1-.473,1.268,1.681,1.681,0,0,1-1.328.534,1.718,1.718,0,0,1-1.244-.51A1.686,1.686,0,0,1,0,1.8,1.757,1.757,0,0,1,.516.53,1.683,1.683,0,0,1,1.767,0,1.693,1.693,0,0,1,3.088.53,1.776,1.776,0,0,1,3.568,1.769Z" transform="translate(958.56 1414.87) rotate(90)"/><path class="a" d="M3.568,1.768a1.845,1.845,0,0,1-.473,1.268,1.683,1.683,0,0,1-1.328.533A1.717,1.717,0,0,1,.522,3.06,1.686,1.686,0,0,1,0,1.8,1.757,1.757,0,0,1,.516.53,1.683,1.683,0,0,1,1.767,0,1.7,1.7,0,0,1,3.088.53,1.777,1.777,0,0,1,3.568,1.768Z" transform="translate(975.868 1414.87) rotate(90)"/><path class="a" d="M3.568,1.77a1.848,1.848,0,0,1-.473,1.268,1.683,1.683,0,0,1-1.328.533A1.717,1.717,0,0,1,.522,3.062,1.685,1.685,0,0,1,0,1.8,1.758,1.758,0,0,1,.516.53,1.689,1.689,0,0,1,1.767,0,1.7,1.7,0,0,1,3.088.53,1.78,1.78,0,0,1,3.568,1.77Z" transform="translate(993.179 1414.87) rotate(90)"/><path class="a" d="M3.568,1.768a1.847,1.847,0,0,1-.473,1.269,1.682,1.682,0,0,1-1.328.534,1.72,1.72,0,0,1-1.244-.51A1.689,1.689,0,0,1,0,1.8,1.758,1.758,0,0,1,.516.53,1.688,1.688,0,0,1,1.767,0,1.7,1.7,0,0,1,3.088.53,1.778,1.778,0,0,1,3.568,1.768Z" transform="translate(1010.485 1414.87) rotate(90)"/><path class="a" d="M3.568,1.768a1.845,1.845,0,0,1-.473,1.268,1.683,1.683,0,0,1-1.328.533A1.72,1.72,0,0,1,.522,3.06,1.687,1.687,0,0,1,0,1.8,1.76,1.76,0,0,1,.516.529,1.685,1.685,0,0,1,1.767,0,1.7,1.7,0,0,1,3.088.529,1.779,1.779,0,0,1,3.568,1.768Z" transform="translate(1027.794 1414.87) rotate(90)"/><path class="a" d="M3.568,1.77a1.842,1.842,0,0,1-.473,1.268,1.683,1.683,0,0,1-1.328.533,1.72,1.72,0,0,1-1.244-.51A1.688,1.688,0,0,1,0,1.8,1.758,1.758,0,0,1,.516.53,1.686,1.686,0,0,1,1.767,0,1.7,1.7,0,0,1,3.088.53,1.78,1.78,0,0,1,3.568,1.77Z" transform="translate(1045.105 1414.87) rotate(90)"/><path class="a" d="M3.568,1.767a1.847,1.847,0,0,1-.473,1.269,1.685,1.685,0,0,1-1.328.533A1.72,1.72,0,0,1,.522,3.06,1.688,1.688,0,0,1,0,1.8,1.758,1.758,0,0,1,.516.529,1.685,1.685,0,0,1,1.767,0,1.7,1.7,0,0,1,3.088.529,1.778,1.778,0,0,1,3.568,1.767Z" transform="translate(1062.41 1414.87) rotate(90)"/><path class="a" d="M3.568,1.77a1.847,1.847,0,0,1-.473,1.268,1.683,1.683,0,0,1-1.328.533A1.72,1.72,0,0,1,.522,3.063,1.688,1.688,0,0,1,0,1.8,1.759,1.759,0,0,1,.516.53,1.689,1.689,0,0,1,1.767,0,1.7,1.7,0,0,1,3.088.53,1.781,1.781,0,0,1,3.568,1.77Z" transform="translate(1079.721 1414.87) rotate(90)"/><path class="a" d="M3.568,1.768a1.847,1.847,0,0,1-.473,1.269,1.685,1.685,0,0,1-1.328.533A1.72,1.72,0,0,1,.522,3.061,1.688,1.688,0,0,1,0,1.8,1.757,1.757,0,0,1,.516.53,1.683,1.683,0,0,1,1.767,0,1.7,1.7,0,0,1,3.088.53,1.778,1.778,0,0,1,3.568,1.768Z" transform="translate(1097.029 1414.87) rotate(90)"/><path class="a" d="M3.568,1.768a1.845,1.845,0,0,1-.473,1.268,1.683,1.683,0,0,1-1.328.533A1.72,1.72,0,0,1,.522,3.06,1.687,1.687,0,0,1,0,1.8,1.758,1.758,0,0,1,.516.529,1.685,1.685,0,0,1,1.767,0,1.7,1.7,0,0,1,3.088.529,1.779,1.779,0,0,1,3.568,1.768Z" transform="translate(1114.335 1414.87) rotate(90)"/><path class="a" d="M3.568,1.77a1.846,1.846,0,0,1-.473,1.268,1.683,1.683,0,0,1-1.328.533,1.72,1.72,0,0,1-1.244-.51A1.688,1.688,0,0,1,0,1.8,1.757,1.757,0,0,1,.516.53,1.683,1.683,0,0,1,1.767,0,1.7,1.7,0,0,1,3.088.53,1.78,1.78,0,0,1,3.568,1.77Z" transform="translate(1131.646 1414.87) rotate(90)"/><path class="a" d="M3.568,1.768a1.842,1.842,0,0,1-.473,1.268,1.684,1.684,0,0,1-1.328.533A1.716,1.716,0,0,1,.522,3.06,1.686,1.686,0,0,1,0,1.8,1.758,1.758,0,0,1,.516.529,1.688,1.688,0,0,1,1.767,0,1.7,1.7,0,0,1,3.088.529,1.777,1.777,0,0,1,3.568,1.768Z" transform="translate(889.326 1429.431) rotate(90)"/><path class="a" d="M3.568,1.769a1.842,1.842,0,0,1-.473,1.268,1.686,1.686,0,0,1-1.328.533A1.719,1.719,0,0,1,.522,3.061,1.687,1.687,0,0,1,0,1.8,1.757,1.757,0,0,1,.516.53,1.688,1.688,0,0,1,1.767,0,1.7,1.7,0,0,1,3.088.53,1.78,1.78,0,0,1,3.568,1.769Z" transform="translate(906.636 1429.431) rotate(90)"/><path class="a" d="M3.568,1.768a1.842,1.842,0,0,1-.473,1.268,1.683,1.683,0,0,1-1.328.534,1.717,1.717,0,0,1-1.244-.51A1.686,1.686,0,0,1,0,1.8,1.758,1.758,0,0,1,.516.53,1.682,1.682,0,0,1,1.767,0,1.7,1.7,0,0,1,3.088.53,1.777,1.777,0,0,1,3.568,1.768Z" transform="translate(923.943 1429.431) rotate(90)"/><path class="a" d="M3.568,1.768a1.842,1.842,0,0,1-.473,1.268,1.683,1.683,0,0,1-1.328.533A1.713,1.713,0,0,1,.522,3.06,1.686,1.686,0,0,1,0,1.8,1.758,1.758,0,0,1,.516.53,1.685,1.685,0,0,1,1.767,0,1.7,1.7,0,0,1,3.088.53,1.777,1.777,0,0,1,3.568,1.768Z" transform="translate(941.251 1429.431) rotate(90)"/><path class="a" d="M3.568,1.769a1.842,1.842,0,0,1-.473,1.268,1.683,1.683,0,0,1-1.328.534,1.718,1.718,0,0,1-1.244-.51A1.686,1.686,0,0,1,0,1.8,1.755,1.755,0,0,1,.516.53,1.682,1.682,0,0,1,1.767,0,1.693,1.693,0,0,1,3.088.53,1.777,1.777,0,0,1,3.568,1.769Z" transform="translate(958.56 1429.431) rotate(90)"/><path class="a" d="M3.568,1.768a1.842,1.842,0,0,1-.473,1.268,1.684,1.684,0,0,1-1.328.533A1.716,1.716,0,0,1,.522,3.06,1.686,1.686,0,0,1,0,1.8,1.757,1.757,0,0,1,.516.53,1.683,1.683,0,0,1,1.767,0,1.7,1.7,0,0,1,3.088.53,1.777,1.777,0,0,1,3.568,1.768Z" transform="translate(975.868 1429.431) rotate(90)"/><path class="a" d="M3.568,1.77a1.845,1.845,0,0,1-.473,1.268,1.684,1.684,0,0,1-1.328.533A1.714,1.714,0,0,1,.522,3.062,1.685,1.685,0,0,1,0,1.8,1.759,1.759,0,0,1,.516.53,1.689,1.689,0,0,1,1.767,0,1.7,1.7,0,0,1,3.088.53,1.78,1.78,0,0,1,3.568,1.77Z" transform="translate(993.179 1429.431) rotate(90)"/><path class="a" d="M3.568,1.768a1.843,1.843,0,0,1-.473,1.269,1.682,1.682,0,0,1-1.328.534,1.72,1.72,0,0,1-1.244-.51A1.689,1.689,0,0,1,0,1.8,1.759,1.759,0,0,1,.516.53,1.688,1.688,0,0,1,1.767,0,1.7,1.7,0,0,1,3.088.53,1.778,1.778,0,0,1,3.568,1.768Z" transform="translate(1010.485 1429.431) rotate(90)"/><path class="a" d="M3.568,1.768a1.842,1.842,0,0,1-.473,1.268,1.684,1.684,0,0,1-1.328.533A1.716,1.716,0,0,1,.522,3.06,1.686,1.686,0,0,1,0,1.8,1.76,1.76,0,0,1,.516.529,1.685,1.685,0,0,1,1.767,0,1.7,1.7,0,0,1,3.088.529,1.78,1.78,0,0,1,3.568,1.768Z" transform="translate(1027.794 1429.431) rotate(90)"/><path class="a" d="M3.568,1.77a1.842,1.842,0,0,1-.473,1.268,1.683,1.683,0,0,1-1.328.533,1.72,1.72,0,0,1-1.244-.51A1.688,1.688,0,0,1,0,1.8,1.755,1.755,0,0,1,.516.53,1.682,1.682,0,0,1,1.767,0,1.7,1.7,0,0,1,3.088.53,1.78,1.78,0,0,1,3.568,1.77Z" transform="translate(1045.105 1429.431) rotate(90)"/><path class="a" d="M3.568,1.767a1.843,1.843,0,0,1-.473,1.269,1.686,1.686,0,0,1-1.328.533A1.719,1.719,0,0,1,.522,3.06,1.688,1.688,0,0,1,0,1.8,1.759,1.759,0,0,1,.516.529,1.685,1.685,0,0,1,1.767,0,1.7,1.7,0,0,1,3.088.529,1.778,1.778,0,0,1,3.568,1.767Z" transform="translate(1062.41 1429.431) rotate(90)"/><path class="a" d="M3.568,1.77a1.844,1.844,0,0,1-.473,1.268,1.687,1.687,0,0,1-1.328.533A1.719,1.719,0,0,1,.522,3.063,1.688,1.688,0,0,1,0,1.8,1.759,1.759,0,0,1,.516.53,1.689,1.689,0,0,1,1.767,0,1.7,1.7,0,0,1,3.088.53,1.781,1.781,0,0,1,3.568,1.77Z" transform="translate(1079.721 1429.431) rotate(90)"/><path class="a" d="M3.568,1.768a1.843,1.843,0,0,1-.473,1.269,1.685,1.685,0,0,1-1.328.533A1.719,1.719,0,0,1,.522,3.061,1.688,1.688,0,0,1,0,1.8,1.758,1.758,0,0,1,.516.53,1.683,1.683,0,0,1,1.767,0,1.7,1.7,0,0,1,3.088.53,1.778,1.778,0,0,1,3.568,1.768Z" transform="translate(1097.029 1429.431) rotate(90)"/><path class="a" d="M3.568,1.768a1.845,1.845,0,0,1-.473,1.268,1.684,1.684,0,0,1-1.328.533A1.716,1.716,0,0,1,.522,3.06,1.686,1.686,0,0,1,0,1.8,1.759,1.759,0,0,1,.516.529,1.685,1.685,0,0,1,1.767,0,1.7,1.7,0,0,1,3.088.529,1.78,1.78,0,0,1,3.568,1.768Z" transform="translate(1114.335 1429.431) rotate(90)"/><path class="a" d="M3.568,1.77a1.842,1.842,0,0,1-.473,1.268,1.686,1.686,0,0,1-1.328.533,1.72,1.72,0,0,1-1.244-.51A1.688,1.688,0,0,1,0,1.8,1.758,1.758,0,0,1,.516.53,1.683,1.683,0,0,1,1.767,0,1.7,1.7,0,0,1,3.088.53,1.78,1.78,0,0,1,3.568,1.77Z" transform="translate(1131.646 1429.431) rotate(90)"/><path class="a" d="M3.568,1.768a1.846,1.846,0,0,1-.474,1.268,1.682,1.682,0,0,1-1.328.533A1.715,1.715,0,0,1,.523,3.06,1.686,1.686,0,0,1,0,1.8,1.755,1.755,0,0,1,.517.529,1.687,1.687,0,0,1,1.767,0,1.7,1.7,0,0,1,3.089.529,1.783,1.783,0,0,1,3.568,1.768Z" transform="translate(889.326 1443.993) rotate(90)"/><path class="a" d="M3.568,1.769a1.847,1.847,0,0,1-.474,1.268,1.684,1.684,0,0,1-1.328.533A1.717,1.717,0,0,1,.523,3.061,1.688,1.688,0,0,1,0,1.8,1.755,1.755,0,0,1,.517.53,1.687,1.687,0,0,1,1.767,0,1.7,1.7,0,0,1,3.089.53,1.78,1.78,0,0,1,3.568,1.769Z" transform="translate(906.636 1443.993) rotate(90)"/><path class="a" d="M3.568,1.768a1.846,1.846,0,0,1-.474,1.268,1.683,1.683,0,0,1-1.328.534,1.716,1.716,0,0,1-1.244-.51A1.686,1.686,0,0,1,0,1.8,1.755,1.755,0,0,1,.517.53,1.681,1.681,0,0,1,1.767,0,1.7,1.7,0,0,1,3.089.53,1.78,1.78,0,0,1,3.568,1.768Z" transform="translate(923.943 1443.993) rotate(90)"/><path class="a" d="M3.568,1.768a1.846,1.846,0,0,1-.474,1.268,1.682,1.682,0,0,1-1.328.533A1.714,1.714,0,0,1,.523,3.06,1.686,1.686,0,0,1,0,1.8,1.755,1.755,0,0,1,.517.53,1.683,1.683,0,0,1,1.767,0,1.7,1.7,0,0,1,3.089.53,1.783,1.783,0,0,1,3.568,1.768Z" transform="translate(941.251 1443.993) rotate(90)"/><path class="a" d="M3.568,1.769a1.846,1.846,0,0,1-.474,1.268,1.683,1.683,0,0,1-1.328.534,1.716,1.716,0,0,1-1.244-.51A1.687,1.687,0,0,1,0,1.8,1.755,1.755,0,0,1,.517.53,1.681,1.681,0,0,1,1.767,0,1.693,1.693,0,0,1,3.089.53,1.78,1.78,0,0,1,3.568,1.769Z" transform="translate(958.56 1443.993) rotate(90)"/><path class="a" d="M3.568,1.768a1.846,1.846,0,0,1-.474,1.268,1.682,1.682,0,0,1-1.328.533A1.715,1.715,0,0,1,.523,3.06,1.686,1.686,0,0,1,0,1.8,1.755,1.755,0,0,1,.517.53,1.681,1.681,0,0,1,1.767,0,1.7,1.7,0,0,1,3.089.53,1.783,1.783,0,0,1,3.568,1.768Z" transform="translate(975.868 1443.993) rotate(90)"/><path class="a" d="M3.568,1.77a1.846,1.846,0,0,1-.474,1.268,1.682,1.682,0,0,1-1.328.533A1.712,1.712,0,0,1,.523,3.062,1.686,1.686,0,0,1,0,1.8,1.756,1.756,0,0,1,.517.53,1.686,1.686,0,0,1,1.767,0,1.7,1.7,0,0,1,3.089.53,1.78,1.78,0,0,1,3.568,1.77Z" transform="translate(993.179 1443.993) rotate(90)"/><path class="a" d="M3.568,1.768a1.847,1.847,0,0,1-.474,1.269,1.682,1.682,0,0,1-1.328.534,1.719,1.719,0,0,1-1.244-.51A1.689,1.689,0,0,1,0,1.8,1.756,1.756,0,0,1,.517.53,1.686,1.686,0,0,1,1.767,0,1.7,1.7,0,0,1,3.089.53,1.781,1.781,0,0,1,3.568,1.768Z" transform="translate(1010.485 1443.993) rotate(90)"/><path class="a" d="M3.568,1.768a1.846,1.846,0,0,1-.474,1.268,1.682,1.682,0,0,1-1.328.533A1.718,1.718,0,0,1,.523,3.06,1.686,1.686,0,0,1,0,1.8,1.758,1.758,0,0,1,.517.529,1.684,1.684,0,0,1,1.767,0,1.7,1.7,0,0,1,3.089.529,1.786,1.786,0,0,1,3.568,1.768Z" transform="translate(1027.794 1443.993) rotate(90)"/><path class="a" d="M3.568,1.77a1.846,1.846,0,0,1-.474,1.268,1.682,1.682,0,0,1-1.328.533,1.718,1.718,0,0,1-1.244-.51A1.689,1.689,0,0,1,0,1.8,1.755,1.755,0,0,1,.517.53,1.681,1.681,0,0,1,1.767,0,1.7,1.7,0,0,1,3.089.53,1.78,1.78,0,0,1,3.568,1.77Z" transform="translate(1045.105 1443.993) rotate(90)"/><path class="a" d="M3.568,1.767a1.847,1.847,0,0,1-.474,1.269,1.684,1.684,0,0,1-1.328.533A1.717,1.717,0,0,1,.523,3.06,1.689,1.689,0,0,1,0,1.8,1.762,1.762,0,0,1,.517.529,1.684,1.684,0,0,1,1.767,0,1.7,1.7,0,0,1,3.089.529,1.784,1.784,0,0,1,3.568,1.767Z" transform="translate(1062.41 1443.993) rotate(90)"/><path class="a" d="M3.568,1.77a1.845,1.845,0,0,1-.474,1.268,1.685,1.685,0,0,1-1.328.533A1.717,1.717,0,0,1,.523,3.063,1.688,1.688,0,0,1,0,1.8,1.756,1.756,0,0,1,.517.53,1.687,1.687,0,0,1,1.767,0,1.7,1.7,0,0,1,3.089.53,1.781,1.781,0,0,1,3.568,1.77Z" transform="translate(1079.721 1443.993) rotate(90)"/><path class="a" d="M3.568,1.768a1.847,1.847,0,0,1-.474,1.269,1.684,1.684,0,0,1-1.328.533A1.717,1.717,0,0,1,.523,3.061,1.689,1.689,0,0,1,0,1.8,1.755,1.755,0,0,1,.517.53,1.681,1.681,0,0,1,1.767,0,1.7,1.7,0,0,1,3.089.53,1.781,1.781,0,0,1,3.568,1.768Z" transform="translate(1097.029 1443.993) rotate(90)"/><path class="a" d="M3.568,1.768a1.846,1.846,0,0,1-.474,1.268,1.682,1.682,0,0,1-1.328.533A1.718,1.718,0,0,1,.523,3.06,1.687,1.687,0,0,1,0,1.8,1.756,1.756,0,0,1,.517.529,1.682,1.682,0,0,1,1.767,0,1.7,1.7,0,0,1,3.089.529,1.786,1.786,0,0,1,3.568,1.768Z" transform="translate(1114.335 1443.993) rotate(90)"/><path class="a" d="M3.568,1.77a1.847,1.847,0,0,1-.474,1.268,1.684,1.684,0,0,1-1.328.533,1.718,1.718,0,0,1-1.244-.51A1.689,1.689,0,0,1,0,1.8,1.755,1.755,0,0,1,.517.53,1.681,1.681,0,0,1,1.767,0,1.7,1.7,0,0,1,3.089.53,1.78,1.78,0,0,1,3.568,1.77Z" transform="translate(1131.646 1443.993) rotate(90)"/><path class="a" d="M3.568,1.768a1.846,1.846,0,0,1-.474,1.268,1.682,1.682,0,0,1-1.327.533A1.715,1.715,0,0,1,.523,3.06,1.686,1.686,0,0,1,0,1.8,1.761,1.761,0,0,1,.517.529,1.688,1.688,0,0,1,1.767,0,1.7,1.7,0,0,1,3.089.529,1.783,1.783,0,0,1,3.568,1.768Z" transform="translate(889.326 1458.555) rotate(90)"/><path class="a" d="M3.568,1.769a1.847,1.847,0,0,1-.474,1.268,1.684,1.684,0,0,1-1.327.533A1.718,1.718,0,0,1,.523,3.061,1.69,1.69,0,0,1,0,1.8,1.756,1.756,0,0,1,.517.53,1.688,1.688,0,0,1,1.767,0,1.7,1.7,0,0,1,3.089.53,1.78,1.78,0,0,1,3.568,1.769Z" transform="translate(906.636 1458.555) rotate(90)"/><path class="a" d="M3.568,1.768a1.846,1.846,0,0,1-.474,1.268,1.682,1.682,0,0,1-1.327.534,1.716,1.716,0,0,1-1.244-.51A1.686,1.686,0,0,1,0,1.8,1.756,1.756,0,0,1,.517.53,1.681,1.681,0,0,1,1.767,0,1.7,1.7,0,0,1,3.089.53,1.783,1.783,0,0,1,3.568,1.768Z" transform="translate(923.943 1458.555) rotate(90)"/><path class="a" d="M3.568,1.768a1.846,1.846,0,0,1-.474,1.268,1.681,1.681,0,0,1-1.327.533A1.712,1.712,0,0,1,.523,3.06,1.686,1.686,0,0,1,0,1.8,1.756,1.756,0,0,1,.517.53,1.685,1.685,0,0,1,1.767,0,1.7,1.7,0,0,1,3.089.53,1.783,1.783,0,0,1,3.568,1.768Z" transform="translate(941.251 1458.555) rotate(90)"/><path class="a" d="M3.568,1.769a1.846,1.846,0,0,1-.474,1.268,1.683,1.683,0,0,1-1.327.534,1.717,1.717,0,0,1-1.244-.51A1.687,1.687,0,0,1,0,1.8,1.755,1.755,0,0,1,.517.53,1.681,1.681,0,0,1,1.767,0,1.693,1.693,0,0,1,3.089.53,1.78,1.78,0,0,1,3.568,1.769Z" transform="translate(958.56 1458.555) rotate(90)"/><path class="a" d="M3.568,1.768a1.846,1.846,0,0,1-.474,1.268,1.682,1.682,0,0,1-1.327.533A1.715,1.715,0,0,1,.523,3.06,1.686,1.686,0,0,1,0,1.8,1.761,1.761,0,0,1,.517.53,1.682,1.682,0,0,1,1.767,0,1.7,1.7,0,0,1,3.089.53,1.783,1.783,0,0,1,3.568,1.768Z" transform="translate(975.868 1458.555) rotate(90)"/><path class="a" d="M3.568,1.77a1.846,1.846,0,0,1-.474,1.268,1.681,1.681,0,0,1-1.327.533A1.712,1.712,0,0,1,.523,3.062,1.688,1.688,0,0,1,0,1.8,1.757,1.757,0,0,1,.517.53,1.686,1.686,0,0,1,1.767,0,1.7,1.7,0,0,1,3.089.53,1.78,1.78,0,0,1,3.568,1.77Z" transform="translate(993.179 1458.555) rotate(90)"/><path class="a" d="M3.568,1.768a1.848,1.848,0,0,1-.474,1.269,1.682,1.682,0,0,1-1.327.534,1.719,1.719,0,0,1-1.244-.51A1.689,1.689,0,0,1,0,1.8,1.757,1.757,0,0,1,.517.53,1.687,1.687,0,0,1,1.767,0,1.7,1.7,0,0,1,3.089.53,1.784,1.784,0,0,1,3.568,1.768Z" transform="translate(1010.485 1458.555) rotate(90)"/><path class="a" d="M3.568,1.768a1.846,1.846,0,0,1-.474,1.268,1.682,1.682,0,0,1-1.327.533A1.715,1.715,0,0,1,.523,3.06,1.686,1.686,0,0,1,0,1.8,1.758,1.758,0,0,1,.517.529,1.685,1.685,0,0,1,1.767,0,1.7,1.7,0,0,1,3.089.529,1.786,1.786,0,0,1,3.568,1.768Z" transform="translate(1027.794 1458.555) rotate(90)"/><path class="a" d="M3.568,1.77a1.846,1.846,0,0,1-.474,1.268,1.682,1.682,0,0,1-1.327.533,1.719,1.719,0,0,1-1.244-.51A1.689,1.689,0,0,1,0,1.8,1.757,1.757,0,0,1,.517.53,1.681,1.681,0,0,1,1.767,0,1.7,1.7,0,0,1,3.089.53,1.78,1.78,0,0,1,3.568,1.77Z" transform="translate(1045.105 1458.555) rotate(90)"/><path class="a" d="M3.568,1.767a1.848,1.848,0,0,1-.474,1.269,1.684,1.684,0,0,1-1.327.533A1.718,1.718,0,0,1,.523,3.06,1.689,1.689,0,0,1,0,1.8,1.762,1.762,0,0,1,.517.529,1.685,1.685,0,0,1,1.767,0,1.7,1.7,0,0,1,3.089.529,1.784,1.784,0,0,1,3.568,1.767Z" transform="translate(1062.41 1458.555) rotate(90)"/><path class="a" d="M3.568,1.77a1.845,1.845,0,0,1-.474,1.268,1.684,1.684,0,0,1-1.327.533A1.718,1.718,0,0,1,.523,3.063,1.691,1.691,0,0,1,0,1.8,1.757,1.757,0,0,1,.517.53,1.687,1.687,0,0,1,1.767,0,1.7,1.7,0,0,1,3.089.53,1.782,1.782,0,0,1,3.568,1.77Z" transform="translate(1079.721 1458.555) rotate(90)"/><path class="a" d="M3.568,1.768a1.848,1.848,0,0,1-.474,1.269,1.684,1.684,0,0,1-1.327.533A1.718,1.718,0,0,1,.523,3.061,1.689,1.689,0,0,1,0,1.8,1.756,1.756,0,0,1,.517.53,1.681,1.681,0,0,1,1.767,0,1.7,1.7,0,0,1,3.089.53,1.781,1.781,0,0,1,3.568,1.768Z" transform="translate(1097.029 1458.555) rotate(90)"/><path class="a" d="M3.568,1.768a1.846,1.846,0,0,1-.474,1.268,1.681,1.681,0,0,1-1.327.533A1.715,1.715,0,0,1,.523,3.06,1.688,1.688,0,0,1,0,1.8,1.757,1.757,0,0,1,.517.529,1.685,1.685,0,0,1,1.767,0,1.7,1.7,0,0,1,3.089.529,1.786,1.786,0,0,1,3.568,1.768Z" transform="translate(1114.335 1458.555) rotate(90)"/><path class="a" d="M3.568,1.77a1.847,1.847,0,0,1-.474,1.268,1.684,1.684,0,0,1-1.327.533,1.718,1.718,0,0,1-1.244-.51A1.689,1.689,0,0,1,0,1.8,1.756,1.756,0,0,1,.517.53,1.681,1.681,0,0,1,1.767,0,1.7,1.7,0,0,1,3.089.53,1.78,1.78,0,0,1,3.568,1.77Z" transform="translate(1131.646 1458.555) rotate(90)"/><path class="a" d="M3.568,1.768a1.846,1.846,0,0,1-.474,1.268,1.681,1.681,0,0,1-1.327.533A1.715,1.715,0,0,1,.523,3.06,1.687,1.687,0,0,1,0,1.8,1.761,1.761,0,0,1,.517.529,1.688,1.688,0,0,1,1.767,0,1.7,1.7,0,0,1,3.089.529,1.78,1.78,0,0,1,3.568,1.768Z" transform="translate(889.326 1473.116) rotate(90)"/><path class="a" d="M3.568,1.769a1.847,1.847,0,0,1-.474,1.268,1.684,1.684,0,0,1-1.327.533A1.718,1.718,0,0,1,.523,3.061,1.691,1.691,0,0,1,0,1.8,1.758,1.758,0,0,1,.517.53,1.688,1.688,0,0,1,1.767,0,1.7,1.7,0,0,1,3.089.53,1.78,1.78,0,0,1,3.568,1.769Z" transform="translate(906.636 1473.116) rotate(90)"/><path class="a" d="M3.568,1.768a1.843,1.843,0,0,1-.474,1.268,1.682,1.682,0,0,1-1.327.534,1.717,1.717,0,0,1-1.244-.51A1.687,1.687,0,0,1,0,1.8,1.756,1.756,0,0,1,.517.53,1.681,1.681,0,0,1,1.767,0,1.7,1.7,0,0,1,3.089.53,1.777,1.777,0,0,1,3.568,1.768Z" transform="translate(923.943 1473.116) rotate(90)"/><path class="a" d="M3.568,1.768a1.846,1.846,0,0,1-.474,1.268,1.681,1.681,0,0,1-1.327.533A1.712,1.712,0,0,1,.523,3.06,1.686,1.686,0,0,1,0,1.8,1.758,1.758,0,0,1,.517.53,1.684,1.684,0,0,1,1.767,0,1.7,1.7,0,0,1,3.089.53,1.777,1.777,0,0,1,3.568,1.768Z" transform="translate(941.251 1473.116) rotate(90)"/><path class="a" d="M3.568,1.769a1.846,1.846,0,0,1-.474,1.268,1.682,1.682,0,0,1-1.327.534,1.717,1.717,0,0,1-1.244-.51A1.687,1.687,0,0,1,0,1.8,1.755,1.755,0,0,1,.517.53,1.681,1.681,0,0,1,1.767,0,1.693,1.693,0,0,1,3.089.53,1.776,1.776,0,0,1,3.568,1.769Z" transform="translate(958.56 1473.116) rotate(90)"/><path class="a" d="M3.568,1.768a1.846,1.846,0,0,1-.474,1.268,1.681,1.681,0,0,1-1.327.533A1.715,1.715,0,0,1,.523,3.06,1.687,1.687,0,0,1,0,1.8,1.758,1.758,0,0,1,.517.53,1.682,1.682,0,0,1,1.767,0,1.7,1.7,0,0,1,3.089.53,1.777,1.777,0,0,1,3.568,1.768Z" transform="translate(975.868 1473.116) rotate(90)"/><path class="a" d="M3.568,1.77a1.846,1.846,0,0,1-.474,1.268,1.681,1.681,0,0,1-1.327.533A1.712,1.712,0,0,1,.523,3.062,1.686,1.686,0,0,1,0,1.8,1.756,1.756,0,0,1,.517.53,1.686,1.686,0,0,1,1.767,0,1.7,1.7,0,0,1,3.089.53,1.78,1.78,0,0,1,3.568,1.77Z" transform="translate(993.179 1473.116) rotate(90)"/><path class="a" d="M3.568,1.768a1.847,1.847,0,0,1-.474,1.269,1.682,1.682,0,0,1-1.327.534A1.719,1.719,0,0,1,.523,3.06,1.689,1.689,0,0,1,0,1.8,1.756,1.756,0,0,1,.517.53,1.687,1.687,0,0,1,1.767,0,1.7,1.7,0,0,1,3.089.53,1.778,1.778,0,0,1,3.568,1.768Z" transform="translate(1010.485 1473.116) rotate(90)"/><path class="a" d="M3.568,1.768a1.843,1.843,0,0,1-.474,1.268,1.682,1.682,0,0,1-1.327.533A1.715,1.715,0,0,1,.523,3.06,1.686,1.686,0,0,1,0,1.8,1.761,1.761,0,0,1,.517.529,1.685,1.685,0,0,1,1.767,0,1.7,1.7,0,0,1,3.089.529,1.779,1.779,0,0,1,3.568,1.768Z" transform="translate(1027.794 1473.116) rotate(90)"/><path class="a" d="M3.568,1.77a1.843,1.843,0,0,1-.474,1.268,1.682,1.682,0,0,1-1.327.533,1.719,1.719,0,0,1-1.244-.51A1.689,1.689,0,0,1,0,1.8,1.757,1.757,0,0,1,.517.53,1.681,1.681,0,0,1,1.767,0,1.7,1.7,0,0,1,3.089.53,1.78,1.78,0,0,1,3.568,1.77Z" transform="translate(1045.105 1473.116) rotate(90)"/><path class="a" d="M3.568,1.767a1.847,1.847,0,0,1-.474,1.269,1.684,1.684,0,0,1-1.327.533A1.718,1.718,0,0,1,.523,3.06,1.689,1.689,0,0,1,0,1.8,1.762,1.762,0,0,1,.517.529,1.685,1.685,0,0,1,1.767,0,1.7,1.7,0,0,1,3.089.529,1.778,1.778,0,0,1,3.568,1.767Z" transform="translate(1062.41 1473.116) rotate(90)"/><path class="a" d="M3.568,1.77a1.845,1.845,0,0,1-.474,1.268,1.684,1.684,0,0,1-1.327.533A1.718,1.718,0,0,1,.523,3.063,1.688,1.688,0,0,1,0,1.8,1.756,1.756,0,0,1,.517.53,1.686,1.686,0,0,1,1.767,0,1.7,1.7,0,0,1,3.089.53,1.781,1.781,0,0,1,3.568,1.77Z" transform="translate(1079.721 1473.116) rotate(90)"/><path class="a" d="M3.568,1.768a1.847,1.847,0,0,1-.474,1.269,1.684,1.684,0,0,1-1.327.533A1.718,1.718,0,0,1,.523,3.061,1.689,1.689,0,0,1,0,1.8,1.755,1.755,0,0,1,.517.53,1.681,1.681,0,0,1,1.767,0,1.7,1.7,0,0,1,3.089.53,1.778,1.778,0,0,1,3.568,1.768Z" transform="translate(1097.029 1473.116) rotate(90)"/><path class="a" d="M3.568,1.768a1.846,1.846,0,0,1-.474,1.268,1.681,1.681,0,0,1-1.327.533A1.715,1.715,0,0,1,.523,3.06,1.687,1.687,0,0,1,0,1.8,1.759,1.759,0,0,1,.517.529,1.683,1.683,0,0,1,1.767,0,1.7,1.7,0,0,1,3.089.529,1.779,1.779,0,0,1,3.568,1.768Z" transform="translate(1114.335 1473.116) rotate(90)"/><path class="a" d="M3.568,1.77a1.847,1.847,0,0,1-.474,1.268,1.683,1.683,0,0,1-1.327.533,1.719,1.719,0,0,1-1.244-.51A1.689,1.689,0,0,1,0,1.8,1.758,1.758,0,0,1,.517.53,1.681,1.681,0,0,1,1.767,0,1.7,1.7,0,0,1,3.089.53,1.78,1.78,0,0,1,3.568,1.77Z" transform="translate(1131.646 1473.116) rotate(90)"/><path class="a" d="M3.568,1.768a1.846,1.846,0,0,1-.474,1.268,1.681,1.681,0,0,1-1.327.533A1.716,1.716,0,0,1,.522,3.06,1.686,1.686,0,0,1,0,1.8,1.757,1.757,0,0,1,.516.529,1.686,1.686,0,0,1,1.767,0,1.7,1.7,0,0,1,3.088.529,1.777,1.777,0,0,1,3.568,1.768Z" transform="translate(889.326 1487.678) rotate(90)"/><path class="a" d="M3.568,1.769a1.847,1.847,0,0,1-.474,1.268,1.683,1.683,0,0,1-1.327.533A1.719,1.719,0,0,1,.522,3.061,1.685,1.685,0,0,1,0,1.8,1.757,1.757,0,0,1,.516.53,1.688,1.688,0,0,1,1.767,0,1.7,1.7,0,0,1,3.088.53,1.78,1.78,0,0,1,3.568,1.769Z" transform="translate(906.636 1487.678) rotate(90)"/><path class="a" d="M3.568,1.768a1.842,1.842,0,0,1-.474,1.268,1.682,1.682,0,0,1-1.327.534,1.716,1.716,0,0,1-1.244-.51A1.685,1.685,0,0,1,0,1.8,1.752,1.752,0,0,1,.516.53,1.681,1.681,0,0,1,1.767,0,1.7,1.7,0,0,1,3.088.53,1.777,1.777,0,0,1,3.568,1.768Z" transform="translate(923.943 1487.678) rotate(90)"/><path class="a" d="M3.568,1.768a1.845,1.845,0,0,1-.474,1.268,1.681,1.681,0,0,1-1.327.533A1.713,1.713,0,0,1,.522,3.06,1.685,1.685,0,0,1,0,1.8,1.757,1.757,0,0,1,.516.53,1.685,1.685,0,0,1,1.767,0,1.7,1.7,0,0,1,3.088.53,1.777,1.777,0,0,1,3.568,1.768Z" transform="translate(941.251 1487.678) rotate(90)"/><path class="a" d="M3.568,1.769a1.846,1.846,0,0,1-.474,1.268,1.682,1.682,0,0,1-1.327.534,1.717,1.717,0,0,1-1.244-.51A1.686,1.686,0,0,1,0,1.8,1.752,1.752,0,0,1,.516.53,1.681,1.681,0,0,1,1.767,0,1.694,1.694,0,0,1,3.088.53,1.777,1.777,0,0,1,3.568,1.769Z" transform="translate(958.56 1487.678) rotate(90)"/><path class="a" d="M3.568,1.768a1.846,1.846,0,0,1-.474,1.268,1.681,1.681,0,0,1-1.327.533A1.716,1.716,0,0,1,.522,3.06,1.685,1.685,0,0,1,0,1.8,1.757,1.757,0,0,1,.516.53,1.683,1.683,0,0,1,1.767,0,1.7,1.7,0,0,1,3.088.53,1.777,1.777,0,0,1,3.568,1.768Z" transform="translate(975.868 1487.678) rotate(90)"/><path class="a" d="M3.568,1.77a1.845,1.845,0,0,1-.474,1.268,1.681,1.681,0,0,1-1.327.533A1.714,1.714,0,0,1,.522,3.062,1.683,1.683,0,0,1,0,1.8,1.753,1.753,0,0,1,.516.53,1.686,1.686,0,0,1,1.767,0,1.7,1.7,0,0,1,3.088.53,1.78,1.78,0,0,1,3.568,1.77Z" transform="translate(993.179 1487.678) rotate(90)"/><path class="a" d="M3.568,1.768a1.847,1.847,0,0,1-.474,1.269,1.682,1.682,0,0,1-1.327.534,1.719,1.719,0,0,1-1.244-.51A1.688,1.688,0,0,1,0,1.8,1.758,1.758,0,0,1,.516.53,1.684,1.684,0,0,1,1.767,0,1.7,1.7,0,0,1,3.088.53,1.778,1.778,0,0,1,3.568,1.768Z" transform="translate(1010.485 1487.678) rotate(90)"/><path class="a" d="M3.568,1.768a1.842,1.842,0,0,1-.474,1.268,1.681,1.681,0,0,1-1.327.533A1.716,1.716,0,0,1,.522,3.06,1.685,1.685,0,0,1,0,1.8,1.76,1.76,0,0,1,.516.529,1.685,1.685,0,0,1,1.767,0,1.7,1.7,0,0,1,3.088.529,1.78,1.78,0,0,1,3.568,1.768Z" transform="translate(1027.794 1487.678) rotate(90)"/><path class="a" d="M3.568,1.77a1.842,1.842,0,0,1-.474,1.268,1.681,1.681,0,0,1-1.327.533,1.719,1.719,0,0,1-1.244-.51A1.688,1.688,0,0,1,0,1.8,1.753,1.753,0,0,1,.516.53,1.681,1.681,0,0,1,1.767,0,1.7,1.7,0,0,1,3.088.53,1.78,1.78,0,0,1,3.568,1.77Z" transform="translate(1045.105 1487.678) rotate(90)"/><path class="a" d="M3.568,1.767a1.847,1.847,0,0,1-.474,1.269,1.684,1.684,0,0,1-1.327.533A1.719,1.719,0,0,1,.522,3.06,1.688,1.688,0,0,1,0,1.8,1.758,1.758,0,0,1,.516.529,1.685,1.685,0,0,1,1.767,0,1.7,1.7,0,0,1,3.088.529,1.778,1.778,0,0,1,3.568,1.767Z" transform="translate(1062.41 1487.678) rotate(90)"/><path class="a" d="M3.568,1.77a1.844,1.844,0,0,1-.474,1.268,1.684,1.684,0,0,1-1.327.533A1.719,1.719,0,0,1,.522,3.063,1.685,1.685,0,0,1,0,1.8,1.753,1.753,0,0,1,.516.53,1.687,1.687,0,0,1,1.767,0,1.7,1.7,0,0,1,3.088.53,1.781,1.781,0,0,1,3.568,1.77Z" transform="translate(1079.721 1487.678) rotate(90)"/><path class="a" d="M3.568,1.768a1.847,1.847,0,0,1-.474,1.269,1.683,1.683,0,0,1-1.327.533A1.719,1.719,0,0,1,.522,3.061,1.686,1.686,0,0,1,0,1.8,1.752,1.752,0,0,1,.516.53,1.681,1.681,0,0,1,1.767,0,1.7,1.7,0,0,1,3.088.53,1.778,1.778,0,0,1,3.568,1.768Z" transform="translate(1097.029 1487.678) rotate(90)"/><path class="a" d="M3.568,1.768a1.846,1.846,0,0,1-.474,1.268,1.681,1.681,0,0,1-1.327.533A1.716,1.716,0,0,1,.522,3.06,1.686,1.686,0,0,1,0,1.8,1.758,1.758,0,0,1,.516.529,1.685,1.685,0,0,1,1.767,0,1.7,1.7,0,0,1,3.088.529,1.78,1.78,0,0,1,3.568,1.768Z" transform="translate(1114.335 1487.678) rotate(90)"/><path class="a" d="M3.568,1.77a1.847,1.847,0,0,1-.474,1.268,1.683,1.683,0,0,1-1.327.533,1.718,1.718,0,0,1-1.244-.51A1.688,1.688,0,0,1,0,1.8,1.757,1.757,0,0,1,.516.53,1.681,1.681,0,0,1,1.767,0,1.7,1.7,0,0,1,3.088.53,1.78,1.78,0,0,1,3.568,1.77Z" transform="translate(1131.646 1487.678) rotate(90)"/><path class="a" d="M3.568,1.768a1.846,1.846,0,0,1-.474,1.268,1.682,1.682,0,0,1-1.328.533A1.718,1.718,0,0,1,.522,3.06,1.686,1.686,0,0,1,0,1.8,1.758,1.758,0,0,1,.516.529,1.688,1.688,0,0,1,1.767,0,1.7,1.7,0,0,1,3.088.529,1.781,1.781,0,0,1,3.568,1.768Z" transform="translate(889.326 1502.24) rotate(90)"/><path class="a" d="M3.568,1.769a1.847,1.847,0,0,1-.474,1.268,1.684,1.684,0,0,1-1.328.533A1.72,1.72,0,0,1,.522,3.061,1.69,1.69,0,0,1,0,1.8,1.757,1.757,0,0,1,.516.53,1.688,1.688,0,0,1,1.767,0,1.7,1.7,0,0,1,3.088.53,1.781,1.781,0,0,1,3.568,1.769Z" transform="translate(906.636 1502.24) rotate(90)"/><path class="a" d="M3.568,1.768a1.846,1.846,0,0,1-.474,1.268,1.683,1.683,0,0,1-1.328.534,1.718,1.718,0,0,1-1.244-.51A1.686,1.686,0,0,1,0,1.8,1.757,1.757,0,0,1,.516.53,1.683,1.683,0,0,1,1.767,0,1.7,1.7,0,0,1,3.088.53,1.781,1.781,0,0,1,3.568,1.768Z" transform="translate(923.943 1502.24) rotate(90)"/><path class="a" d="M3.568,1.768a1.846,1.846,0,0,1-.474,1.268,1.682,1.682,0,0,1-1.328.533A1.715,1.715,0,0,1,.522,3.06,1.686,1.686,0,0,1,0,1.8,1.757,1.757,0,0,1,.516.53,1.685,1.685,0,0,1,1.767,0,1.7,1.7,0,0,1,3.088.53,1.781,1.781,0,0,1,3.568,1.768Z" transform="translate(941.251 1502.24) rotate(90)"/><path class="a" d="M3.568,1.769a1.846,1.846,0,0,1-.474,1.268,1.683,1.683,0,0,1-1.328.534,1.718,1.718,0,0,1-1.244-.51A1.686,1.686,0,0,1,0,1.8,1.757,1.757,0,0,1,.516.53,1.683,1.683,0,0,1,1.767,0,1.694,1.694,0,0,1,3.088.53,1.781,1.781,0,0,1,3.568,1.769Z" transform="translate(958.56 1502.24) rotate(90)"/><path class="a" d="M3.568,1.768a1.846,1.846,0,0,1-.474,1.268,1.682,1.682,0,0,1-1.328.533A1.717,1.717,0,0,1,.522,3.06,1.686,1.686,0,0,1,0,1.8,1.757,1.757,0,0,1,.516.53,1.683,1.683,0,0,1,1.767,0,1.7,1.7,0,0,1,3.088.53,1.781,1.781,0,0,1,3.568,1.768Z" transform="translate(975.868 1502.24) rotate(90)"/><path class="a" d="M3.568,1.77a1.845,1.845,0,0,1-.474,1.268,1.682,1.682,0,0,1-1.328.533A1.715,1.715,0,0,1,.522,3.062,1.688,1.688,0,0,1,0,1.8,1.758,1.758,0,0,1,.516.53,1.689,1.689,0,0,1,1.767,0,1.7,1.7,0,0,1,3.088.53,1.781,1.781,0,0,1,3.568,1.77Z" transform="translate(993.179 1502.24) rotate(90)"/><path class="a" d="M3.568,1.768a1.847,1.847,0,0,1-.474,1.269,1.682,1.682,0,0,1-1.328.534,1.721,1.721,0,0,1-1.244-.51A1.689,1.689,0,0,1,0,1.8,1.758,1.758,0,0,1,.516.53,1.688,1.688,0,0,1,1.767,0,1.7,1.7,0,0,1,3.088.53,1.782,1.782,0,0,1,3.568,1.768Z" transform="translate(1010.485 1502.24) rotate(90)"/><path class="a" d="M3.568,1.768a1.846,1.846,0,0,1-.474,1.268,1.682,1.682,0,0,1-1.328.533A1.718,1.718,0,0,1,.522,3.06,1.686,1.686,0,0,1,0,1.8,1.76,1.76,0,0,1,.516.529,1.685,1.685,0,0,1,1.767,0,1.7,1.7,0,0,1,3.088.529,1.784,1.784,0,0,1,3.568,1.768Z" transform="translate(1027.794 1502.24) rotate(90)"/><path class="a" d="M3.568,1.77a1.846,1.846,0,0,1-.474,1.268,1.682,1.682,0,0,1-1.328.533,1.72,1.72,0,0,1-1.244-.51A1.688,1.688,0,0,1,0,1.8,1.758,1.758,0,0,1,.516.53,1.684,1.684,0,0,1,1.767,0,1.7,1.7,0,0,1,3.088.53,1.781,1.781,0,0,1,3.568,1.77Z" transform="translate(1045.105 1502.24) rotate(90)"/><path class="a" d="M3.568,1.767a1.847,1.847,0,0,1-.474,1.269,1.684,1.684,0,0,1-1.328.533A1.72,1.72,0,0,1,.522,3.06,1.688,1.688,0,0,1,0,1.8,1.758,1.758,0,0,1,.516.529,1.685,1.685,0,0,1,1.767,0,1.7,1.7,0,0,1,3.088.529,1.782,1.782,0,0,1,3.568,1.767Z" transform="translate(1062.41 1502.24) rotate(90)"/><path class="a" d="M3.568,1.77a1.844,1.844,0,0,1-.474,1.268,1.685,1.685,0,0,1-1.328.533A1.72,1.72,0,0,1,.522,3.063,1.69,1.69,0,0,1,0,1.8,1.759,1.759,0,0,1,.516.53,1.689,1.689,0,0,1,1.767,0,1.7,1.7,0,0,1,3.088.53,1.782,1.782,0,0,1,3.568,1.77Z" transform="translate(1079.721 1502.24) rotate(90)"/><path class="a" d="M3.568,1.768a1.847,1.847,0,0,1-.474,1.269,1.684,1.684,0,0,1-1.328.533A1.72,1.72,0,0,1,.522,3.061,1.688,1.688,0,0,1,0,1.8,1.757,1.757,0,0,1,.516.53,1.684,1.684,0,0,1,1.767,0,1.7,1.7,0,0,1,3.088.53,1.782,1.782,0,0,1,3.568,1.768Z" transform="translate(1097.029 1502.24) rotate(90)"/><path class="a" d="M3.568,1.768a1.846,1.846,0,0,1-.474,1.268,1.682,1.682,0,0,1-1.328.533A1.717,1.717,0,0,1,.522,3.06,1.686,1.686,0,0,1,0,1.8,1.758,1.758,0,0,1,.516.529,1.685,1.685,0,0,1,1.767,0,1.7,1.7,0,0,1,3.088.529,1.784,1.784,0,0,1,3.568,1.768Z" transform="translate(1114.335 1502.24) rotate(90)"/><path class="a" d="M3.568,1.77a1.847,1.847,0,0,1-.474,1.268,1.684,1.684,0,0,1-1.328.533,1.72,1.72,0,0,1-1.244-.51A1.688,1.688,0,0,1,0,1.8,1.757,1.757,0,0,1,.516.53,1.683,1.683,0,0,1,1.767,0,1.7,1.7,0,0,1,3.088.53,1.781,1.781,0,0,1,3.568,1.77Z" transform="translate(1131.646 1502.24) rotate(90)"/></g></svg>