<svg xmlns="http://www.w3.org/2000/svg" width="183.238" height="50.625" viewBox="0 0 183.238 50.625"><defs><style>.a,.c{fill:#0b4a5a;}.a{fill-rule:evenodd;}.b{fill:#fff;}</style></defs><g transform="translate(-119 -10.875)"><g transform="translate(119 10.875)"><g transform="translate(0 0)"><path class="a" d="M50.825,24.52a11.068,11.068,0,0,0-3.461-4.231,1.049,1.049,0,0,1-.427-1.624,10.185,10.185,0,0,0,.855-5.384,1.483,1.483,0,0,0-.684-1.111,11.644,11.644,0,0,0-5.384-2.008,1.052,1.052,0,0,1-1.111-.983V9.093A11.833,11.833,0,0,0,38.6,4.05,1.91,1.91,0,0,0,37.064,3.2a12.687,12.687,0,0,0-5.342.9c-.342.128-.684.385-.983-.043A11.539,11.539,0,0,0,27.236.8C26.509.375,25.783-.309,24.757.119a10.232,10.232,0,0,0-4.53,3.632c-.385.513-.726.684-1.325.385a9.6,9.6,0,0,0-4.615-.9c-.513.214-1.282-.427-1.838.385a14.789,14.789,0,0,0-1.239,1.923A13.065,13.065,0,0,0,10.1,9.563c-.043.427-.171.684-.641.726a12.522,12.522,0,0,0-5.384,1.752,1.4,1.4,0,0,0-.855,1.282,11.2,11.2,0,0,0,.94,5.726.874.874,0,0,1-.171,1.2c-.043.043-.085.043-.128.085A10.643,10.643,0,0,0,.185,24.776a1.361,1.361,0,0,0,0,1.282,12.094,12.094,0,0,0,3.8,4.615c.427.342.47.513.3.94A11.759,11.759,0,0,0,3.262,37a1.862,1.862,0,0,0,.983,1.752,12.1,12.1,0,0,0,5.342,1.838c.427.043.684.171.726.641a14.02,14.02,0,0,0,1.88,5.342,1.55,1.55,0,0,0,1.41.9,11.614,11.614,0,0,0,5.513-.855,1.133,1.133,0,0,1,1.581.427h0a11.452,11.452,0,0,0,4.188,3.376,1.635,1.635,0,0,0,1.538,0,11.448,11.448,0,0,0,4.316-3.632.848.848,0,0,1,1.111-.427c.043.043.085.043.128.085a11.936,11.936,0,0,0,5.3.983,2.058,2.058,0,0,0,1.838-1.111A12,12,0,0,0,40.868,41.1c.043-.427.171-.6.6-.641a13.808,13.808,0,0,0,5.513-1.838,1.55,1.55,0,0,0,.9-1.41,12.37,12.37,0,0,0-1.026-5.555.94.94,0,0,1,.214-1.282c.043-.043.085-.043.128-.085a11.209,11.209,0,0,0,3.59-4.273A1.283,1.283,0,0,0,50.825,24.52Z" transform="translate(-0.025 0.017)"/><g transform="translate(6.431 7.376)"><path class="b" d="M.68-289.038c-.513.214-.9.769-1.367,1.154l.214.256,2.222-.94c.855,1.239.812,1.239.043,2.308a27.887,27.887,0,0,0-2.179,3.333,7.313,7.313,0,0,0-.427,2.179c.128.043.214.043.342.085.94-1.2,1.709-2.607,3.419-3.419l-.513,1.2a23.939,23.939,0,0,0-2.35,11.153c.128,2.479.385,4.914.513,7.393.043.9-.043,1.795-.043,2.735l-.513.171A38.847,38.847,0,0,1-3-265.876c-2.137-4.231-1.88-8.718-.812-13.2-3.5,3.8-3.761,8.248-2.479,13.247-2.991-1.41-4.359-3.761-5.342-6.453-1.5.684-2.863,1.624-4.572.684,2.35-2.35,2.564-2.82,3.718-6.111,1.538-4.487,4.017-8.333,8.162-10.9,2.008-1.239,4.06-2.35,6.2-3.59C2.175-290.619,2.09-289.593.68-289.038Z" transform="translate(16.2 299.424)"/><path class="b" d="M46.6-285.9a2.483,2.483,0,0,1-2.949,1.88c-.128-.043-.3-.085-.427-.128-1.923-.684-2.991,0-3.162,2.051-.214,2.436.556,3.59,3.29,4.872-.171-.812-.726-1.795-.47-2.479.3-.684,1.367-.983,2.222-1.581l-1.026-.6a2.352,2.352,0,0,1,2.906,1.709,1.818,1.818,0,0,1,.085.47,3.726,3.726,0,0,1-.128,1.367,1,1,0,0,0,.726,1.41,2.558,2.558,0,0,0,1.453-.47c.256-.128.342-.47.641-.812.171.427.3.726.385.983l1.709.342c.128-.3.385-.726.6-1.2.171-.427.3-.9.513-1.5-1.752-.513-3.59-1.2-4.957-.043.3-1.154,1.538-.427,2.393-.812.427-.128.855-.3,1.282-.47a1.658,1.658,0,0,0,.812-.9c.085-.256-.3-.684-.556-.94a2.4,2.4,0,0,1-1.111-2.137,16.52,16.52,0,0,0,2.051.128c.983-.043,1.282-.556.641-1.325a23.867,23.867,0,0,0-2.649-2.436,1.763,1.763,0,0,0-.47-.3c-1.709-1.068-2.222-.9-3.12,1.026-.043.085-.171.128-.043.043L45.019-289.1v-.342a7.653,7.653,0,0,1,1.709.085,1.086,1.086,0,0,0,1.5-.47.689.689,0,0,0,.128-.385c-.684-.684-2.137-.171-2.436-1.624.47.171.769.3,1.325.47a5.117,5.117,0,0,0-2.82-2.991,13.893,13.893,0,0,0-2.564-.855,1.2,1.2,0,0,0-1.581.726.257.257,0,0,0-.043.171c1.88,1.752,1.88,1.752.983,4.487l3.077.9a4.219,4.219,0,0,1-3.29.427,2.835,2.835,0,0,1-.812-.385c-1.581-.812-2.692-.214-2.906,1.581-.171,1.41-.256,2.863-.385,4.316a6.31,6.31,0,0,0,.043.9c1.111.214,1.2-.6,1.239-1.239a2.861,2.861,0,0,1,1.752-2.35,2.642,2.642,0,0,1,2.692-.043C44.678-284.574,44.678-284.617,46.6-285.9Z" transform="translate(-14.208 301.199)"/><path class="b" d="M2.5-297.764A43.692,43.692,0,0,1,7.671-299.6a32.561,32.561,0,0,1,5.384-.342l1.923-1.453C11.474-303.276,4.551-302.592,2.5-297.764Z" transform="translate(5.491 305.244)"/><path class="b" d="M-8.7-283.3c3.333-5.043,8.29-7.735,13.76-9.7a2.725,2.725,0,0,1-.085-.3c-.769.128-1.581.171-2.35.342a23.244,23.244,0,0,0-8.974,3.974C-8.144-287.574-8.187-285.352-8.7-283.3Z" transform="translate(11.905 300.054)"/><path class="b" d="M34.5-296.05c.085-1.538-.6-2.308-1.581-2.265a3.431,3.431,0,0,0-1.325.171,1.677,1.677,0,0,0-.9.9,19.338,19.338,0,0,0-.3,3.162c-.043.983,1.282,2.222,2.778,2.607-.043-.3-.043-.513-.085-.769-.256-1.325-.556-2.649-.726-3.974-.043-.385.47-.812.684-1.2.3.214.641.385.94.641A3.782,3.782,0,0,1,34.5-296.05Z" transform="translate(-10.485 302.932)"/><path class="b" d="M21.5-307.847a9.424,9.424,0,0,1,5.854,2.179,4.22,4.22,0,0,0,1.581.47c-.214-1.795-1.282-3.376-2.521-3.547C24.748-308.958,23-309.258,21.5-307.847Z" transform="translate(-5.389 309.003)"/><path class="b" d="M37.6-309.017a4.855,4.855,0,0,1,1.41,3.718c0,.385.427.769.684,1.2.342-.3.9-.556.94-.855a7.261,7.261,0,0,0,0-3.034C40.249-308.974,38.839-309.273,37.6-309.017Z" transform="translate(-14.609 309.104)"/><path class="b" d="M52-300.751c1.282,1.154.94.9,3.333-1.2-.556-.556-1.154-1.111-1.838-1.752C53.026-302.76,52.513-301.777,52-300.751Z" transform="translate(-22.856 306.009)"/><path class="b" d="M48.893-303.93l-1.667-.47c-.256.983-.513,1.88-.726,2.82C48.081-301.152,48.637-301.622,48.893-303.93Z" transform="translate(-19.706 306.41)"/><path class="b" d="M73.349-269.5c-.812.043-1.667.043-2.479.085l-.171.256c.427.342.94.94,1.282.9.513-.086.983-.684,1.5-1.026C73.478-269.372,73.435-269.415,73.349-269.5Z" transform="translate(-33.565 286.424)"/></g></g><g transform="translate(58.016 10.643)"><path class="c" d="M66.583-296.427a6.275,6.275,0,0,0-1.752-.94,19.209,19.209,0,0,0-2.564-.727,14.569,14.569,0,0,1-2.35-.6,5.782,5.782,0,0,1-1.453-.727,2.355,2.355,0,0,1-.726-.855,2.458,2.458,0,0,1-.214-1.111v-.043a2.117,2.117,0,0,1,.3-1.154,3.227,3.227,0,0,1,.855-1.026A4.981,4.981,0,0,1,60-304.333a5.993,5.993,0,0,1,1.752-.256,6.507,6.507,0,0,1,2.564.47,8.576,8.576,0,0,1,2.222,1.2l.256.171.726-.9-.256-.214a9.242,9.242,0,0,0-2.479-1.325A8.8,8.8,0,0,0,61.8-305.7a6.054,6.054,0,0,0-2.137.342,6.539,6.539,0,0,0-1.709.9,5.043,5.043,0,0,0-1.154,1.367,3.891,3.891,0,0,0-.427,1.709v.043a4,4,0,0,0,.3,1.581,3.547,3.547,0,0,0,1.026,1.239,6.539,6.539,0,0,0,1.709.9,17.847,17.847,0,0,0,2.479.684,21.876,21.876,0,0,1,2.393.641,5.784,5.784,0,0,1,1.453.726,2.356,2.356,0,0,1,.726.855,3.454,3.454,0,0,1,.214,1.154v.043a2.581,2.581,0,0,1-.3,1.282,3.5,3.5,0,0,1-.855,1.068,5.506,5.506,0,0,1-1.41.727,6.888,6.888,0,0,1-1.88.256,8.168,8.168,0,0,1-3.034-.6,9.273,9.273,0,0,1-2.564-1.709l-.214-.214-.812.812.256.214a9.178,9.178,0,0,0,2.906,1.88,8.776,8.776,0,0,0,3.461.684,7.2,7.2,0,0,0,2.308-.342,6.019,6.019,0,0,0,1.795-.94,4.645,4.645,0,0,0,1.154-1.41,4.18,4.18,0,0,0,.385-1.752v-.043a3.8,3.8,0,0,0-.3-1.538A2.959,2.959,0,0,0,66.583-296.427Z" transform="translate(-55.6 305.7)"/><path class="c" d="M90.2-304.189h5.6v15.042h1.154v-15.042h5.6V-305.3H90.2Z" transform="translate(-75.414 305.471)"/><path class="c" d="M128.111-296.711h9.359v-1.111h-9.359v-6.367h10.342V-305.3H127v16.153h11.538v-1.111H128.111Z" transform="translate(-96.488 305.471)"/><path class="c" d="M173.016-296.25a5.6,5.6,0,0,0,1.709-.94,4.328,4.328,0,0,0,1.538-3.333v-.043a4.281,4.281,0,0,0-1.2-3.12,6.467,6.467,0,0,0-4.7-1.538H163.7v16.153h1.154v-6.752h5.256l5.128,6.752h1.41l-5.213-6.837C171.99-295.994,172.5-296.122,173.016-296.25Zm-8.162-7.906h5.47a5.772,5.772,0,0,1,3.547.94,3.086,3.086,0,0,1,1.239,2.607v.043a3.352,3.352,0,0,1-.3,1.41,3.225,3.225,0,0,1-.9,1.111,5.2,5.2,0,0,1-1.538.769,8.042,8.042,0,0,1-2.265.3h-5.256Z" transform="translate(-117.505 305.438)"/><path class="c" d="M216.036-305.2v14.059L204.8-305.2h-.9v16.153h1.154v-14.059l11.153,13.974.085.128h.9v-16.153h-1.154Z" transform="translate(-140.526 305.414)"/></g><g transform="translate(137 10.37)"><path class="c" d="M167.643-306.1h.513v16.538h10.427v.47H167.6V-306.1Z" transform="translate(-167.6 306.1)"/><path class="c" d="M205.173-282.45a7.488,7.488,0,0,1-1.709-.214,4.534,4.534,0,0,1-1.453-.684,3.338,3.338,0,0,1-1.026-1.154,3.328,3.328,0,0,1-.385-1.581v-.043a3.231,3.231,0,0,1,.427-1.667,3.855,3.855,0,0,1,1.154-1.2,5.04,5.04,0,0,1,1.709-.727,8.861,8.861,0,0,1,2.137-.256,16.175,16.175,0,0,1,2.479.214,11.63,11.63,0,0,1,2.094.556v-1.026a4.014,4.014,0,0,0-1.239-3.248,5,5,0,0,0-3.376-1.068,6.894,6.894,0,0,0-2.094.3,11.761,11.761,0,0,0-1.923.726l-.214-.427a14.564,14.564,0,0,1,2.051-.769,7.748,7.748,0,0,1,2.222-.3,5.406,5.406,0,0,1,3.889,1.325,4.607,4.607,0,0,1,.9,1.453,6.394,6.394,0,0,1,.342,2.008v7.564H210.6l.043-2.863a5.769,5.769,0,0,1-.641,1.111,5.117,5.117,0,0,1-1.111,1.026,5.667,5.667,0,0,1-1.624.769A16.611,16.611,0,0,1,205.173-282.45Zm0-.513a6.571,6.571,0,0,0,2.222-.385,6.035,6.035,0,0,0,1.709-.94,4.887,4.887,0,0,0,1.111-1.367,3.327,3.327,0,0,0,.385-1.581v-1.538a12.187,12.187,0,0,0-2.051-.556,15.727,15.727,0,0,0-2.479-.214,9.819,9.819,0,0,0-1.923.214,5.594,5.594,0,0,0-1.581.641,3.07,3.07,0,0,0-1.026,1.068,2.842,2.842,0,0,0-.385,1.453v.043a2.756,2.756,0,0,0,.342,1.41,2.816,2.816,0,0,0,.9.983,4.409,4.409,0,0,0,1.282.6A5.738,5.738,0,0,0,205.173-282.962Z" transform="translate(-186.498 299.757)"/><path class="c" d="M235.5-294.815h.556l3.889,11.453,3.974-11.538h.427l3.932,11.538,3.932-11.453h.513l-4.231,12.222h-.427l-3.932-11.581L240.2-282.593h-.427Z" transform="translate(-206.484 299.686)"/></g><g transform="translate(59.318 33.736)"><path class="c" d="M57.842-266.658,57.5-272h.684l.171,3.2c.043.726.043,1.111.043,1.41h0c.128-.3.256-.641.6-1.368L60.577-272h.769l.171,3.034c.043.727.043,1.239.043,1.538h0c.171-.47.342-.9.556-1.367l1.538-3.2h.726l-2.607,5.342h-.726l-.171-3.034a9.768,9.768,0,0,1,0-1.581h0c-.171.47-.342.94-.556,1.41l-1.581,3.205Z" transform="translate(-57.5 272.427)"/><path class="c" d="M76.249-264.982a3.084,3.084,0,0,1-1.367.342,1.483,1.483,0,0,1-1.581-1.367v-.256a2.4,2.4,0,0,1,2.222-2.436c.769,0,1.239.427,1.239,1.026,0,1.026-1.239,1.239-2.778,1.2a1.424,1.424,0,0,0,.085.726.951.951,0,0,0,.94.513,2.677,2.677,0,0,0,1.154-.256Zm-.855-3.162a1.6,1.6,0,0,0-1.367,1.2c1.154,0,2.051-.085,2.051-.684,0-.342-.3-.513-.684-.513Z" transform="translate(-66.548 270.538)"/><path class="c" d="M88.783-271.991a8.836,8.836,0,0,1,1.5-.128,2.855,2.855,0,0,1,2.222.769,1.93,1.93,0,0,1,.556,1.5,3.117,3.117,0,0,1-1.068,2.35,3.922,3.922,0,0,1-2.735.812c-.513,0-1.068-.043-1.453-.043Zm-.214,4.7a5.172,5.172,0,0,0,.812.043,3.136,3.136,0,0,0,2.179-.727,2.354,2.354,0,0,0,.726-1.795c0-.983-.513-1.752-2.051-1.752a5.446,5.446,0,0,0-.855.043Z" transform="translate(-74.852 272.504)"/><path class="c" d="M105.149-264.982a3.084,3.084,0,0,1-1.367.342,1.483,1.483,0,0,1-1.581-1.367v-.256a2.4,2.4,0,0,1,2.222-2.436c.769,0,1.239.427,1.239,1.026,0,1.026-1.239,1.239-2.778,1.2a1.424,1.424,0,0,0,.085.726.951.951,0,0,0,.94.513,2.677,2.677,0,0,0,1.154-.256Zm-.855-3.162a1.6,1.6,0,0,0-1.367,1.2c1.154,0,2.051-.085,2.051-.684,0-.342-.256-.513-.684-.513Z" transform="translate(-83.098 270.538)"/><path class="c" d="M112.4-267.231l.6-3.29h-.513l.128-.556h.513l.043-.171a2.519,2.519,0,0,1,.641-1.41,1.493,1.493,0,0,1,.94-.342,1.183,1.183,0,0,1,.556.128l-.128.556a1.264,1.264,0,0,0-.427-.086c-.556,0-.812.513-.94,1.154l-.043.171h.9l-.128.556h-.9l-.6,3.29Z" transform="translate(-88.939 273)"/><path class="c" d="M121.649-264.982a3.084,3.084,0,0,1-1.367.342,1.483,1.483,0,0,1-1.581-1.367v-.256a2.4,2.4,0,0,1,2.222-2.436c.769,0,1.239.427,1.239,1.026,0,1.026-1.239,1.239-2.778,1.2a1.424,1.424,0,0,0,.085.726.951.951,0,0,0,.94.513,2.677,2.677,0,0,0,1.154-.256Zm-.812-3.162a1.6,1.6,0,0,0-1.367,1.2c1.154,0,2.051-.085,2.051-.684-.043-.342-.3-.513-.684-.513Z" transform="translate(-92.547 270.538)"/><path class="c" d="M128.7-264.772l.513-2.778c.085-.385.128-.726.171-1.068h.6l-.128.812h0a1.8,1.8,0,0,1,1.538-.9.98.98,0,0,1,1.068.94v.214a2.523,2.523,0,0,1-.085.6l-.427,2.137h-.684l.385-2.137a1.752,1.752,0,0,0,.043-.47c0-.427-.171-.769-.684-.769a1.726,1.726,0,0,0-1.41,1.581l-.342,1.752Z" transform="translate(-98.274 270.542)"/><path class="c" d="M144.659-272.757l-.855,4.487a10.731,10.731,0,0,0-.171,1.154h-.641l.128-.812h0a1.744,1.744,0,0,1-1.538.9,1.3,1.3,0,0,1-1.282-1.325v-.128a2.572,2.572,0,0,1,2.564-2.564h0a2.42,2.42,0,0,1,.769.128l.342-1.88Zm-1.111,2.436a1.4,1.4,0,0,0-.726-.171,1.852,1.852,0,0,0-1.795,1.88v.043c0,.47.171.983.812.983a1.768,1.768,0,0,0,1.453-1.538Z" transform="translate(-104.917 272.885)"/><path class="c" d="M158.281-270.6l-.171.94h.983l-.128.556h-.983l-.342,1.752a3.3,3.3,0,0,0-.085.641.32.32,0,0,0,.3.385h.085a.942.942,0,0,0,.342-.043l-.043.513a2.167,2.167,0,0,1-.556.085.764.764,0,0,1-.855-.641v-.128a4.706,4.706,0,0,1,.085-.769l.342-1.838H156.7l.128-.556h.556l.128-.727Z" transform="translate(-114.308 271.626)"/><path class="c" d="M163.5-267.059l1.068-5.641h.684l-.513,2.564h0a1.792,1.792,0,0,1,1.5-.812,1,1,0,0,1,1.068.94v.171c0,.214-.043.427-.043.641l-.427,2.137h-.684l.385-2.094a2.258,2.258,0,0,0,.043-.556.622.622,0,0,0-.556-.684h-.128a1.68,1.68,0,0,0-1.41,1.538l-.342,1.837Z" transform="translate(-118.202 272.828)"/><path class="c" d="M178.149-264.982a3.084,3.084,0,0,1-1.367.342,1.483,1.483,0,0,1-1.581-1.367v-.256a2.4,2.4,0,0,1,2.222-2.436c.769,0,1.239.427,1.239,1.026,0,1.026-1.239,1.239-2.778,1.2a1.424,1.424,0,0,0,.085.726.951.951,0,0,0,.94.513,2.677,2.677,0,0,0,1.154-.256Zm-.812-3.162a1.6,1.6,0,0,0-1.367,1.2c1.154,0,2.051-.085,2.051-.684-.043-.342-.3-.513-.684-.513Z" transform="translate(-124.903 270.538)"/><path class="c" d="M190.124-268.368l-.9,1.709H188.5L191.406-272h.812l.94,5.342h-.726l-.256-1.709Zm2.008-.556-.256-1.581c-.043-.256-.085-.6-.128-.9h0c-.128.3-.256.556-.427.9l-.9,1.624Z" transform="translate(-132.519 272.427)"/><path class="c" d="M202.1-264.773l.513-2.778c.085-.385.128-.727.171-1.068h.6l-.128.769h.043a1.805,1.805,0,0,1,1.453-.855.881.881,0,0,1,.983.812v.086a1.744,1.744,0,0,1,1.538-.9.943.943,0,0,1,1.026.94v.128c0,.214-.043.427-.043.641l-.427,2.179h-.641l.385-2.137a1.753,1.753,0,0,0,.043-.47c0-.47-.171-.769-.684-.769a1.548,1.548,0,0,0-1.282,1.453l-.342,1.88h-.684l.427-2.179a1.454,1.454,0,0,0,.043-.427c0-.342-.085-.727-.684-.727a1.691,1.691,0,0,0-1.325,1.5l-.342,1.838Z" transform="translate(-140.307 270.542)"/><path class="c" d="M222.349-264.982a3.084,3.084,0,0,1-1.367.342,1.483,1.483,0,0,1-1.581-1.367v-.256a2.4,2.4,0,0,1,2.222-2.436c.769,0,1.239.427,1.239,1.026,0,1.026-1.239,1.239-2.778,1.2a1.424,1.424,0,0,0,.085.726.951.951,0,0,0,.94.513,2.677,2.677,0,0,0,1.154-.256Zm-.855-3.162a1.6,1.6,0,0,0-1.367,1.2c1.154,0,2.051-.085,2.051-.684,0-.342-.3-.513-.684-.513Z" transform="translate(-150.214 270.538)"/><path class="c" d="M229.3-264.826l.47-2.436c.085-.513.171-1.026.214-1.41h.6c-.043.3-.085.556-.128.855h.043a1.487,1.487,0,0,1,1.239-.983h.214l-.128.684h-.214c-.6,0-1.111.684-1.282,1.667l-.3,1.581Z" transform="translate(-155.884 270.595)"/><path class="c" d="M236.6-266.716l.726-3.8h.684l-.726,3.8Zm.855-4.914a.466.466,0,0,1,.427-.47h0a.422.422,0,0,1,.427.385v.043a.468.468,0,0,1-.427.47h0a.4.4,0,0,1-.427-.427Z" transform="translate(-160.064 272.485)"/><path class="c" d="M244.906-264.939a2.559,2.559,0,0,1-1.282.256A1.484,1.484,0,0,1,242-266.008v-.214a2.48,2.48,0,0,1,2.479-2.479h.043a2.33,2.33,0,0,1,.94.214l-.214.513a1.676,1.676,0,0,0-.769-.171,1.835,1.835,0,0,0-1.752,1.838.971.971,0,0,0,.9,1.068h.171a2.147,2.147,0,0,0,1.026-.256Z" transform="translate(-163.157 270.538)"/><path class="c" d="M254.078-264.768a8.992,8.992,0,0,1,.085-1.068h0a1.75,1.75,0,0,1-1.624,1.154,1.24,1.24,0,0,1-1.239-1.239v-.086a2.718,2.718,0,0,1,2.735-2.692h.085a3.186,3.186,0,0,1,1.111.171l-.385,1.923a8.917,8.917,0,0,0-.171,1.838Zm.427-3.291a1.052,1.052,0,0,0-.513-.043,2.035,2.035,0,0,0-1.966,2.051.757.757,0,0,0,.769.855c.6,0,1.325-.684,1.538-1.795Z" transform="translate(-168.482 270.538)"/><path class="c" d="M262.8-264.772l.513-2.778c.085-.385.128-.726.171-1.068h.6l-.128.812h0a1.8,1.8,0,0,1,1.539-.9.98.98,0,0,1,1.068.94v.214a2.52,2.52,0,0,1-.086.6l-.427,2.137h-.684l.385-2.137a1.752,1.752,0,0,0,.043-.47c0-.427-.171-.769-.684-.769a1.726,1.726,0,0,0-1.41,1.581l-.342,1.752Z" transform="translate(-175.068 270.542)"/><path class="c" d="M279.983-271.991a8.836,8.836,0,0,1,1.5-.128,2.855,2.855,0,0,1,2.222.769,1.93,1.93,0,0,1,.556,1.5,3.117,3.117,0,0,1-1.068,2.35,3.922,3.922,0,0,1-2.735.812c-.513,0-1.068-.043-1.453-.043Zm-.214,4.7a5.172,5.172,0,0,0,.812.043,3.137,3.137,0,0,0,2.179-.727,2.354,2.354,0,0,0,.726-1.795c0-.983-.513-1.752-2.051-1.752a5.446,5.446,0,0,0-.855.043Z" transform="translate(-184.345 272.504)"/><path class="c" d="M293.3-264.826l.47-2.436c.086-.513.171-1.026.214-1.41h.6c-.043.3-.085.556-.128.855h.043a1.487,1.487,0,0,1,1.239-.983h.214l-.128.684h-.214c-.6,0-1.111.684-1.282,1.667l-.3,1.581Z" transform="translate(-192.534 270.595)"/><path class="c" d="M303.549-264.982a3.084,3.084,0,0,1-1.367.342,1.483,1.483,0,0,1-1.581-1.367v-.256a2.4,2.4,0,0,1,2.222-2.436c.769,0,1.239.427,1.239,1.026,0,1.026-1.239,1.239-2.778,1.2a1.423,1.423,0,0,0,.086.726.951.951,0,0,0,.94.513,2.677,2.677,0,0,0,1.154-.256Zm-.855-3.162a1.6,1.6,0,0,0-1.367,1.2c1.154,0,2.051-.085,2.051-.684,0-.342-.3-.513-.684-.513Z" transform="translate(-196.715 270.538)"/><path class="c" d="M313.278-264.768a8.986,8.986,0,0,1,.086-1.068h0a1.75,1.75,0,0,1-1.624,1.154,1.24,1.24,0,0,1-1.239-1.239v-.086a2.718,2.718,0,0,1,2.735-2.692h.086a3.187,3.187,0,0,1,1.111.171l-.385,1.923a8.92,8.92,0,0,0-.171,1.838Zm.427-3.291a1.052,1.052,0,0,0-.513-.043,2.035,2.035,0,0,0-1.966,2.051.757.757,0,0,0,.769.855c.6,0,1.325-.684,1.538-1.795Z" transform="translate(-202.384 270.538)"/><path class="c" d="M322-264.773l.513-2.778c.085-.385.128-.727.171-1.068h.6l-.128.769h.043a1.805,1.805,0,0,1,1.453-.855.881.881,0,0,1,.983.812v.086a1.744,1.744,0,0,1,1.538-.9.943.943,0,0,1,1.026.94v.128c0,.214-.043.427-.043.641l-.427,2.179h-.684l.385-2.137a1.752,1.752,0,0,0,.043-.47c0-.47-.171-.769-.684-.769a1.548,1.548,0,0,0-1.282,1.453l-.342,1.88h-.684l.427-2.179a1.452,1.452,0,0,0,.043-.427c0-.342-.086-.727-.684-.727a1.691,1.691,0,0,0-1.325,1.5l-.342,1.838Z" transform="translate(-208.97 270.542)"/><path class="c" d="M342.732-270.775a1.331,1.331,0,0,1-1.325,1.325h-.043A1.331,1.331,0,0,1,340-270.732a1.331,1.331,0,0,1,1.282-1.368h.128a1.3,1.3,0,0,1,1.325,1.325Zm-2.35,0a1.071,1.071,0,0,0,.983,1.068h.043a1,1,0,0,0,1.026-.983v-.043a1.071,1.071,0,0,0-.983-1.068,1.071,1.071,0,0,0-1.068.983Zm.812.684h-.3v-1.325a2.08,2.08,0,0,1,.513-.043.92.92,0,0,1,.47.086.3.3,0,0,1,.128.256.286.286,0,0,1-.256.3h0a.443.443,0,0,1,.256.342,1.006,1.006,0,0,0,.085.342h-.385a.793.793,0,0,1-.086-.3.271.271,0,0,0-.256-.214h-.171Zm0-.769h.128c.171,0,.3-.043.3-.171s-.086-.214-.3-.214h-.171Z" transform="translate(-219.275 272.485)"/></g></g></g></svg>